<?xml version="1.0" encoding="utf-8"?>
<!-- Generator: Adobe Illustrator 24.2.0, SVG Export Plug-In . SVG Version: 6.00 Build 0)  -->
<svg version="1.1" id="Layer_1" xmlns="http://www.w3.org/2000/svg" xmlns:xlink="http://www.w3.org/1999/xlink" x="0px" y="0px"
	 viewBox="0 0 48 1055.9" style="enable-background:new 0 0 48 1055.9;" xml:space="preserve">
<style type="text/css">
	.st0{fill:none;}
	.st1{fill:#FFFFFF;}
</style>
<rect y="-0.1" class="st0" width="48" height="48"/>
<rect y="47.9" class="st0" width="48" height="48"/>
<rect y="95.9" class="st0" width="48" height="48"/>
<rect y="143.9" class="st0" width="48" height="48"/>
<rect y="191.9" class="st0" width="48" height="48"/>
<rect y="239.9" class="st0" width="48" height="48"/>
<rect y="287.9" class="st0" width="48" height="48"/>
<rect y="335.9" class="st0" width="48" height="48"/>
<rect y="383.9" class="st0" width="48" height="48"/>
<rect y="431.9" class="st0" width="48" height="48"/>
<rect y="479.9" class="st0" width="48" height="48"/>
<rect y="527.9" class="st0" width="48" height="48"/>
<rect y="575.9" class="st0" width="48" height="48"/>
<rect y="623.9" class="st0" width="48" height="48"/>
<rect y="671.9" class="st0" width="48" height="48"/>
<rect y="719.9" class="st0" width="48" height="48"/>
<rect y="815.9" class="st0" width="48" height="48"/>
<rect y="863.9" class="st0" width="48" height="48"/>
<rect y="911.9" class="st0" width="48" height="48"/>
<rect x="0" y="959.9" class="st0" width="48" height="48"/>
<rect x="0" y="1007.9" class="st0" width="48" height="48"/>
<path id="path59" class="st1" d="M33.3,506.6v-0.7H39v1.3h-5.7V506.6z M33.3,504.4v-0.7H39v1.3h-5.7V504.4L33.3,504.4z M33.3,502.3
	v-0.7H39v1.4h-5.7V502.3L33.3,502.3z M33.3,500.1v-0.7H39v1.4h-5.7V500.1z M33.3,498.1v-0.7H39v1.5h-5.7V498.1L33.3,498.1z"/>
<path id="path57" class="st1" d="M20.5,506.6v-0.7h5.7v1.3h-5.7V506.6z M20.5,504.4v-0.7h5.7v1.3h-5.7V504.4z M20.5,502.3v-0.7h5.7
	v1.4h-5.7V502.3z M20.5,500.1v-0.7h5.7v1.4h-5.7V500.1z"/>
<path id="path55" class="st1" d="M26.9,506.6v-0.7h5.7v1.3h-5.7C26.9,507.2,26.9,506.6,26.9,506.6z M26.9,504.4v-0.7h5.7v1.3h-5.7
	L26.9,504.4L26.9,504.4z"/>
<path id="path53" class="st1" d="M14.2,513v-0.7h5.6v1.3h-5.6C14.2,513.6,14.2,513,14.2,513z M14.2,510.8v-0.7h5.6v1.3h-5.6
	C14.2,511.4,14.2,510.8,14.2,510.8z M14.2,508.7V508h5.6v1.3h-5.6C14.2,509.3,14.2,508.7,14.2,508.7z"/>
<path id="path51" class="st1" d="M7.8,506.6v-0.7h5.6v1.3H7.8V506.6z M7.8,504.4v-0.7h5.6v1.3H7.8V504.4z"/>
<path id="path49" class="st1" d="M33.3,513v-0.7h5.6v1.3h-5.6V513z M33.3,510.8v-0.7h5.6v1.3h-5.6V510.8z M33.3,508.7V508h5.6v1.3
	h-5.6V508.7z"/>
<path id="path47" class="st1" d="M27,513v-0.7h5.6v1.3H27V513z M27,510.8v-0.7h5.6v1.3H27V510.8L27,510.8z M27,508.7V508h5.6v1.3H27
	V508.7L27,508.7z"/>
<path id="path45" class="st1" d="M20.6,513v-0.7h5.6v1.3h-5.6V513z M20.6,510.8v-0.7h5.6v1.3h-5.6V510.8z M20.6,508.7V508h5.6v1.3
	h-5.6V508.7z"/>
<path id="path43" class="st1" d="M7.8,513v-0.7h5.6v1.3H7.8V513z M7.8,510.8v-0.7h5.6v1.3H7.8V510.8z M7.8,508.7V508h5.6v1.3H7.8
	V508.7z"/>
<g id="TuneIn-Marquee-Page-1">
	<g id="TuneIn-Marquee">
		<path id="TuneIn_Marquee" class="st1" d="M38.2,259.8c0-0.1-0.1-0.1-0.1-0.1h-0.7c-0.1,0-0.1,0.1-0.1,0.1v2.6c0,0,0,0.1-0.1,0
			l-1-2.7c0-0.1-0.1-0.1-0.2-0.1h-0.8c-0.1,0-0.1,0.1-0.2,0.1v4.7c0,0.1,0.1,0.1,0.2,0.1h0.7c0.1,0,0.1-0.1,0.1-0.1l0,0V262
			c0,0,0-0.1,0.1,0l1,2.5c0,0.1,0.1,0.1,0.2,0.1H38c0.1,0,0.1-0.1,0.1-0.1l0,0L38.2,259.8z M34.2,263.8c0-0.1-0.1-0.1-0.1-0.1l0,0
			h-0.6c0,0-0.1,0-0.1-0.1l0,0v-2.9c0,0,0-0.1,0.1-0.1l0,0H34c0.1,0,0.1-0.1,0.1-0.1l0,0v-0.7c0-0.1-0.1-0.1-0.1-0.1h-2.2
			c-0.1,0-0.1,0.1-0.1,0.1v0.7c0,0.1,0.1,0.1,0.1,0.1h0.5c0,0,0.1,0,0.1,0.1l0,0v2.9c0,0,0,0.1-0.1,0.1l0,0h-0.6
			c-0.1,0-0.1,0.1-0.1,0.1v0.7c0,0.1,0.1,0.1,0.1,0.1l0,0H34c0.1,0,0.1-0.1,0.1-0.1l0,0L34.2,263.8L34.2,263.8z M27.9,260.8H7.5
			c0,0-0.1,0-0.1,0.1v9.7c0,0,0,0.1,0.1,0.1h20.3c0,0,0.1,0,0.1-0.1V260.8z M41.6,256.7v10.9c0,0.3-0.2,0.5-0.5,0.5H29v3
			c0,0.3-0.2,0.5-0.5,0.5H6.9c-0.3,0-0.5-0.2-0.5-0.5v-11c0-0.3,0.2-0.5,0.5-0.5h21v-3c0-0.3,0.2-0.5,0.5-0.5l0,0h12.7
			C41.4,256.1,41.7,256.4,41.6,256.7C41.7,256.7,41.7,256.7,41.6,256.7L41.6,256.7z M24.8,267.1h-1.7c0,0-0.1,0-0.1-0.1l0,0v-0.8
			v-0.1l0,0h1.6c0.1,0,0.1-0.1,0.1-0.1v-0.7c0-0.1-0.1-0.1-0.1-0.1l0,0H23c0,0-0.1,0-0.1-0.1l0,0v-0.9c0,0,0-0.1,0.1-0.1l0,0h1.6
			c0.1,0,0.1-0.1,0.1-0.1l0,0v-0.7c0-0.1-0.1-0.1-0.1-0.1H22c-0.1,0-0.1,0.1-0.1,0.1v4.7c0,0.1,0.1,0.1,0.1,0.1l0,0h2.6
			c0.1,0,0.1-0.1,0.1-0.1l0,0v-0.7C24.9,267.2,24.8,267.1,24.8,267.1L24.8,267.1z M21.1,263.2h-0.7c-0.1,0-0.1,0.1-0.1,0.1l0,0v2.7
			c0,0,0,0.1-0.1,0l-1-2.7c0-0.1-0.1-0.1-0.2-0.1h-0.8c-0.1,0-0.1,0.1-0.1,0.1l0,0v4.7c0,0.1,0.1,0.1,0.1,0.1l0,0h0.7
			c0.1,0,0.1-0.1,0.1-0.1l0,0v-2.4c0,0,0-0.1,0.1,0l1,2.5c0,0.1,0.1,0.1,0.2,0.1h0.8c0.1,0,0.1-0.1,0.1-0.1l0,0v-4.7
			C21.3,263.3,21.2,263.2,21.1,263.2L21.1,263.2z M17.1,263.2h-0.7c-0.1,0-0.1,0.1-0.1,0.1l0,0v3.3c0,0.3-0.3,0.6-0.7,0.6
			c-0.3,0-0.6-0.2-0.7-0.5l0,0v-3.3c0-0.1-0.1-0.1-0.1-0.1l0,0H14c-0.1,0-0.1,0.1-0.1,0.1l0,0v3.3c0.1,0.9,0.9,1.6,1.8,1.5
			c0.8-0.1,1.5-0.7,1.5-1.5v-3.3C17.2,263.3,17.2,263.2,17.1,263.2L17.1,263.2z M13.2,263.3v0.7c0,0.1-0.1,0.1-0.1,0.1l0,0h-0.9
			c0,0-0.1,0-0.1,0.1l0,0v3.7c0,0.1-0.1,0.1-0.1,0.1l0,0h-0.7c-0.1,0-0.1-0.1-0.1-0.1l0,0v-3.7c0,0,0-0.1-0.1-0.1l0,0h-0.9
			c-0.1,0-0.1-0.1-0.1-0.1l0,0v-0.7c0-0.1,0.1-0.1,0.1-0.1h2.9C13.2,263.2,13.2,263.3,13.2,263.3L13.2,263.3z"/>
	</g>
</g>
<path class="st1" d="M28.3,209.4h6.2v3.7h-6.2V209.4z"/>
<path class="st1" d="M21.4,211.3h6.2v1.9h-6.2C21.4,213.2,21.4,211.3,21.4,211.3z"/>
<path class="st1" d="M14.5,210.2h6.2v2.9h-6.2C14.5,213.1,14.5,210.2,14.5,210.2z"/>
<path class="st1" d="M7.5,212.1h6.2v1H7.5V212.1z"/>
<path class="st1" d="M35.2,211.6h6.2v1.5h-6.2V211.6z"/>
<path class="st1" d="M28.3,220.3h6.2v2h-6.2V220.3z"/>
<path class="st1" d="M21.4,220.3h6.2v3.4h-6.2C21.4,223.7,21.4,220.3,21.4,220.3z"/>
<path class="st1" d="M14.5,220.3h6.2v2h-6.2C14.5,222.3,14.5,220.3,14.5,220.3z"/>
<path class="st1" d="M7.5,220.3h6.2v2.8H7.5V220.3z"/>
<path class="st1" d="M35.2,220.3h6.2v1.1h-6.2V220.3z"/>
<path class="st1" d="M13.1,219.1v-3.7h-1.4v-1.1h4.1v1.1h-1.4v3.7H13.1z M9.4,219.1c-0.6,0-1.3-0.2-1.8-0.5l0,0l0.4-1.1l0.1,0.1
	c0.4,0.3,0.9,0.5,1.5,0.5s0.7-0.2,0.7-0.3s-0.4-0.4-0.9-0.5c-0.7-0.2-1.6-0.4-1.6-1.4s0.7-1.5,1.9-1.5c0.7,0,1.4,0.3,1.9,0.9l0,0
	l-1,0.6l0,0c-0.2-0.3-0.6-0.5-0.9-0.5c-0.5,0-0.5,0.2-0.5,0.3c0,0.3,0.4,0.4,0.8,0.5c0.7,0.2,1.6,0.4,1.6,1.5S10.8,219.1,9.4,219.1
	L9.4,219.1L9.4,219.1z M16.5,219.1v-4.7h1.3v4.7H16.5z M19.8,219.1v-3.7h-1.4v-1.1h4.1v1.1h-1.4v3.7H19.8z M30.7,219.1v-1.8h-1.8
	v1.8h-1.3v-4.7h1.3v1.9h1.8v-1.9H32v4.7H30.7z M25.1,219.1c-1.2,0.2-2.4-0.7-2.5-1.9c0-0.2,0-0.3,0-0.5c-0.1-1.3,0.9-2.3,2.1-2.4
	c0.1,0,0.3,0,0.4,0c1.6,0,1.9,0.9,1.9,0.9l0,0l-1,0.6l0,0c-0.2-0.3-0.6-0.5-0.9-0.5c-0.8,0-1.2,0.4-1.2,1.3s0.4,1.4,1.2,1.4l0,0
	c0.4,0,0.7-0.2,0.9-0.5l0,0l1,0.6l0,0C27.1,218.1,26.7,219.1,25.1,219.1L25.1,219.1z M32.6,219.1v-4.7h3.7v1h-2.5v0.9h1.5v1h-1.5
	v0.9h2.5v1L32.6,219.1z M39.2,216.7h-0.9v-1.3h0.9c0.5,0,0.8,0.2,0.8,0.6S39.7,216.7,39.2,216.7z M40.4,217.4
	c0.5-0.3,0.9-0.8,0.8-1.4c0-1.1-0.7-1.6-2-1.6H37v4.7h1.3v-1.4h0.8l0.8,1.4h1.5L40.4,217.4L40.4,217.4z"/>
<path class="st1" d="M23.5,301.1c-6.6,0-12,5.4-12,12s5.4,12,12,12s12-5.4,12-12S30.1,301.1,23.5,301.1L23.5,301.1z M29,318.3
	c-0.2,0.3-0.7,0.4-1,0.2c-2.8-1.7-6.3-2.1-10.5-1.1c-0.4,0.1-0.8-0.2-0.9-0.6s0.2-0.8,0.6-0.9l0,0c4.6-1,8.5-0.6,11.6,1.3
	C29.1,317.5,29.2,318,29,318.3z M30.5,315.1c-0.3,0.4-0.8,0.6-1.3,0.3c-3.6-2-7.9-2.5-12-1.4c-0.5,0.1-1-0.1-1.2-0.6l0,0
	c-0.1-0.5,0.1-1,0.6-1.2c4.5-1.3,9.4-0.7,13.4,1.6C30.5,314.1,30.7,314.6,30.5,315.1L30.5,315.1z M30.6,311.7
	c-3.9-2.3-10.2-2.5-13.9-1.4c-0.6,0.1-1.2-0.2-1.4-0.8c-0.1-0.6,0.2-1.1,0.7-1.3c4.2-1.3,11.2-1,15.7,1.6c0.6,0.3,0.8,0.9,0.5,1.5
	s-0.9,0.8-1.5,0.5C30.7,311.7,30.6,311.7,30.6,311.7z"/>
<circle class="st1" cx="15.8" cy="407.9" r="2.4"/>
<circle class="st1" cx="24.1" cy="407.9" r="2.4"/>
<circle class="st1" cx="32.4" cy="407.9" r="2.4"/>
<path class="st1" d="M14.6,167.1v1.7c0,0.9-0.7,1.6-1.6,1.6s-1.6-0.7-1.6-1.6l0,0c0-0.1,0-0.1,0-0.2v-1.4c0-0.1,0-0.1,0-0.2
	c0-0.9,0.7-1.6,1.6-1.6S14.6,166.2,14.6,167.1C14.6,167,14.6,167,14.6,167.1L14.6,167.1z"/>
<path class="st1" d="M36.7,167.1v1.7c0.1,0.9-0.6,1.6-1.4,1.7c-0.9,0.1-1.6-0.6-1.7-1.4c0-0.1,0-0.2,0-0.3s0-0.1,0-0.2v-1.4
	c0-0.1,0-0.1,0-0.2c-0.1-0.9,0.6-1.6,1.4-1.7c0.9-0.1,1.6,0.6,1.7,1.4C36.7,166.9,36.7,167,36.7,167.1L36.7,167.1z"/>
<path class="st1" d="M20.1,173.7c0,0.1,0,0.1,0,0.2c0,0.9-0.7,1.6-1.6,1.6s-1.6-0.7-1.6-1.6v-1.7c0-0.9,0.7-1.6,1.6-1.6
	s1.6,0.7,1.6,1.6c0,0.1,0,0.1,0,0.2V173.7z"/>
<path class="st1" d="M20.1,167.3c0,0.1,0,0.1,0,0.2c-0.1,0.9-0.8,1.5-1.7,1.4c-0.8-0.1-1.4-0.7-1.4-1.4l0,0v-5.6
	c0-0.9,0.7-1.6,1.6-1.6s1.6,0.7,1.6,1.6c0,0.1,0,0.1,0,0.2L20.1,167.3z"/>
<path class="st1" d="M16.9,167.5L16.9,167.5L16.9,167.5L16.9,167.5z"/>
<path class="st1" d="M31.2,161.9v1.7c0.1,0.9-0.6,1.6-1.4,1.7s-1.6-0.6-1.7-1.4c0-0.1,0-0.2,0-0.3s0-0.1,0-0.2V162
	c0-0.1,0-0.1,0-0.2c-0.1-0.9,0.6-1.6,1.4-1.7s1.6,0.6,1.7,1.4C31.2,161.7,31.2,161.8,31.2,161.9L31.2,161.9z"/>
<path class="st1" d="M25.6,158.4c0,0.1,0,0.1,0,0.2c0,0.9-0.7,1.6-1.6,1.6s-1.6-0.7-1.6-1.6v-1.7c0-0.9,0.7-1.6,1.6-1.6
	s1.6,0.7,1.6,1.6c0,0.1,0,0.1,0,0.2V158.4z"/>
<path class="st1" d="M25.6,178.7c0,0.1,0,0.1,0,0.2c0,0.9-0.7,1.6-1.6,1.6s-1.6-0.7-1.6-1.6v-1.7c0-0.9,0.7-1.6,1.6-1.6
	s1.6,0.7,1.6,1.6c0,0.1,0,0.1,0,0.2V178.7z"/>
<path class="st1" d="M31.2,168.3v5.6c0.1,0.9-0.6,1.6-1.4,1.7s-1.6-0.6-1.7-1.4c0-0.1,0-0.2,0-0.3s0-0.1,0-0.2v-5.2
	c0-0.1,0-0.1,0-0.2c-0.1-0.9,0.6-1.6,1.4-1.7s1.6,0.6,1.7,1.4C31.2,168.2,31.2,168.3,31.2,168.3L31.2,168.3z"/>
<path class="st1" d="M25.6,172.3c0,0.1,0,0.1,0,0.2c0,0.9-0.7,1.6-1.6,1.6s-1.6-0.7-1.6-1.6v-9.1c0-0.9,0.7-1.6,1.6-1.6
	s1.6,0.7,1.6,1.6c0,0.1,0,0.1,0,0.2V172.3z"/>
<path class="st1" d="M20.3,366.7c0,1.2-1,2.1-2.1,2.1c-1.2,0-2.1-1-2.1-2.1s1-2.1,2.1-2.1l0,0C19.4,364.6,20.3,365.5,20.3,366.7
	L20.3,366.7z M32.5,368.8c0-4.9-2.2-9.6-6-12.8c-2.9-2.4-6.6-3.8-10.4-3.8v3.8c4.5,0,8.7,2.3,11.1,6.2c1.2,2,1.8,4.3,1.8,6.6
	L32.5,368.8L32.5,368.8z M26.7,368.8c0-3.2-1.5-6.2-3.9-8.2c-1.9-1.5-4.2-2.4-6.7-2.4v3.2c4.1,0,7.4,3.3,7.4,7.4l0,0H26.7
	L26.7,368.8z"/>
<path class="st1" d="M29.4,448c-2.3,0-4.4,1.1-5.7,3c-1.3-1.9-3.4-3-5.7-3c-3.8,0-6.8,3-6.8,6.8l0,0c0,2.4,1.5,4.1,3.1,5.7l6.2,5.9
	c0.2,0.2,0.5,0.2,0.7,0c0.1-0.1,0.1-0.2,0.1-0.3v-4.6c0.1-1.3,1.2-2.3,2.5-2.2c1.2,0.1,2.2,1,2.2,2.2l0,0v4.5c0,0.3,0.2,0.5,0.5,0.5
	l0,0c0.1,0,0.3-0.1,0.4-0.1l6.2-5.9c1.6-1.6,3.1-3.3,3.1-5.7C36.3,451,33.3,448,29.4,448C29.5,447.9,29.5,447.9,29.4,448L29.4,448z
	 M17.5,460.1c-0.1,0.1-0.2,0.2-0.4,0.2c-0.1,0-0.2,0-0.3-0.1c-2.1-1.8-3.1-3.7-3.1-5.6l0,0c0-1.7,0.9-3.4,2.3-4.4
	c0.2-0.1,0.5-0.1,0.7,0.1c0.1,0.2,0.1,0.5-0.1,0.7l0,0c-1.1,0.8-1.8,2.1-1.9,3.6l0,0c0,1.6,0.9,3.3,2.8,4.9
	C17.6,459.6,17.7,459.9,17.5,460.1L17.5,460.1L17.5,460.1z M20.5,458.3c-0.1,0.1-0.2,0.2-0.4,0.2c-0.1,0-0.2,0-0.2-0.1
	c-1.4-0.8-2.3-2.2-2.3-3.8l0,0c0-1.4,0.8-2.7,2-3.4c0.2-0.1,0.5,0,0.6,0.2l0,0c0.1,0.2,0,0.5-0.2,0.6l0,0c-0.9,0.5-1.5,1.5-1.5,2.5
	c0,1.3,0.7,2.4,1.8,3C20.6,457.8,20.7,458.1,20.5,458.3L20.5,458.3z M23.7,457.1c-1.1,0-2.1-0.9-2.1-2.1c0-1.1,0.9-2.1,2.1-2.1
	c1.1,0,2,0.9,2.1,2l0,0C25.8,456.1,24.8,457.1,23.7,457.1L23.7,457.1z M27.5,458.5c-0.1,0-0.1,0.1-0.2,0.1c-0.3,0-0.5-0.2-0.5-0.5
	c0-0.2,0.1-0.3,0.2-0.4l0,0c1.1-0.6,1.8-1.7,1.8-3c0-1.1-0.6-2-1.5-2.5c-0.2-0.1-0.3-0.4-0.2-0.6c0.1-0.2,0.4-0.3,0.6-0.2h0.1
	c1.2,0.7,2,2,2,3.4l0,0C29.7,456.2,28.9,457.7,27.5,458.5L27.5,458.5z M33.7,454.5c0,1.9-1,3.8-3.1,5.6c-0.1,0.1-0.2,0.1-0.3,0.1
	c-0.1,0-0.3-0.1-0.4-0.2c-0.2-0.2-0.2-0.5,0-0.7l0,0c1.8-1.6,2.8-3.3,2.8-4.9l0,0c0-1.4-0.7-2.7-1.9-3.6c-0.2-0.2-0.3-0.4-0.1-0.7
	c0.1-0.2,0.4-0.3,0.6-0.1C32.7,451.1,33.6,452.7,33.7,454.5L33.7,454.5z"/>
<path class="st1" d="M34.9,548.2c-0.6-4.5-4.4-7.9-9-7.8H14.6v23.2h5.8c0.8,0,1.5-0.6,1.5-1.5l0,0v-4.3h4.4c2.4,0,4.8-1,6.4-2.8
	C34.3,553,35.1,550.6,34.9,548.2z"/>
<g id="Twitter">
	<path class="st1" d="M34.6,641.1c-0.8,0.4-1.7,0.6-2.6,0.7c0.9-0.6,1.7-1.5,2-2.5c-0.9,0.5-1.9,0.9-2.9,1.1
		c-1.7-1.8-4.5-1.9-6.4-0.2c-1.2,1.1-1.7,2.8-1.3,4.3c-3.6-0.2-7-1.9-9.3-4.7c-1.2,2.1-0.6,4.7,1.4,6c-0.7,0-1.4-0.2-2-0.6l0,0
		c0,2.1,1.5,4,3.6,4.4c-0.7,0.2-1.3,0.2-2,0.1c0.6,1.8,2.3,3.1,4.2,3.1c-1.6,1.3-3.6,1.9-5.6,1.9c-0.4,0-0.7,0-1.1-0.1
		c6,3.8,13.9,2,17.7-4c1.3-2,1.9-4.3,2-6.7v-0.6C33.3,642.8,34,642,34.6,641.1z"/>
</g>
<g id="FB">
	<path class="st1" d="M18.6,693.1h2.3v-2.2c-0.1-1.2,0.1-2.4,0.8-3.5c0.8-1.1,2.2-1.8,3.6-1.7c1.4-0.1,2.8,0.1,4.2,0.4l-0.6,3.4
		c-0.6-0.2-1.2-0.3-1.9-0.3c-0.9,0-1.7,0.3-1.7,1.2v2.6H29l-0.3,3.3h-3.5V708h-4.4v-11.6h-2.3L18.6,693.1z"/>
</g>
<path class="st1" d="M33.4,732.9H14.7c-0.9,0-1.6,0.7-1.6,1.6l0,0v18.8c0,0.9,0.7,1.6,1.6,1.6l0,0h18.7c0.9,0,1.6-0.7,1.6-1.6v-18.8
	C35,733.6,34.3,732.9,33.4,732.9z M19.6,751.6h-3.3v-10.5h3.3V751.6z M18,739.7c-1,0-1.9-0.8-1.9-1.9c0-1,0.8-1.9,1.9-1.9
	c1,0,1.9,0.8,1.9,1.9l0,0C19.9,738.9,19,739.7,18,739.7z M28.5,751.6v-5.1c0-1.2,0-2.8-1.7-2.8s-2,1.3-2,2.7v5.2h-3.3v-10.5h3.1v1.4
	l0,0c0.6-1.1,1.8-1.7,3.1-1.7c3.3,0,3.9,2.2,3.9,5v5.7L28.5,751.6z"/>
<path class="st1" d="M24,828.5c-5.9,0-10.7,4.8-10.7,10.7c0,4.2,2.5,8.1,6.4,9.8c0-0.8,0-1.6,0.2-2.5s1.4-5.8,1.4-5.8
	c-0.2-0.5-0.3-1.1-0.3-1.7c0-1.6,0.9-2.8,2.1-2.8c0.8,0,1.4,0.6,1.5,1.4c0,0.1,0,0.1,0,0.2c-0.2,1.3-0.5,2.6-0.9,3.8
	c-0.2,0.9,0.3,1.8,1.2,2c0.2,0,0.3,0.1,0.5,0.1c2,0,3.4-2.6,3.4-5.7c0-2.3-1.6-4.1-4.5-4.1c-2.8-0.1-5.1,2.1-5.2,4.9
	c0,0.1,0,0.2,0,0.3c0,0.8,0.2,1.5,0.7,2.1c0.2,0.1,0.2,0.4,0.1,0.6l-0.2,0.9c0,0.2-0.2,0.3-0.4,0.3h-0.1c-1.5-0.6-2.2-2.2-2.2-4.1
	c0-3,2.6-6.7,7.6-6.7c4.1,0,6.8,3,6.8,6.1c0,4.2-2.3,7.3-5.8,7.3c-1,0-2-0.5-2.6-1.3c0,0-0.6,2.5-0.8,2.9c-0.2,0.8-0.6,1.6-1,2.3
	c1,0.3,2,0.4,3,0.4c5.9,0,10.7-4.8,10.7-10.7S29.9,828.5,24,828.5L24,828.5z"/>
<path class="st1" d="M29.3,590.4c0,0,1.3-2.9,1.2-3s-2.9,1.7-2.9,1.7s-3.5-2.7-3.6-2.7s-3.1,2.4-3.1,2.4s-3.1-2.3-3.2-2.2
	s1,3.7,1,3.7c-2.2,0.9-4.2,2.5-5.6,4.4c-1.4,2-2.2,4.4-2.2,6.8c0,6.9,5.9,12.5,13.1,12.5c7.5,0,13.1-5.6,13.1-12.5
	C37,596.7,33.9,592.2,29.3,590.4z M30.6,601.6c0-2.3-1.4-4.4-3.5-5.4l0.5-1.2c2.6,1.2,4.3,3.8,4.4,6.6L30.6,601.6L30.6,601.6z
	 M28.1,593.5l0.7-1.8c4,1.6,6.6,5.5,6.7,9.8h-2C33.5,598.1,31.4,594.9,28.1,593.5L28.1,593.5z"/>
<path class="st1" d="M24.2,38.5c0,0,3,0,3-9c0-1.7-1.4-3-3-3c-1.7,0-3,1.4-3,3C21.1,38.5,24.2,38.5,24.2,38.5z M27.9,35.5
	c0.1-0.5,0.2-1,0.3-1.6l0.1-0.4c2.3-0.9,4.2-2.6,5.4-4.8c0.5-0.9,0.9-2,1.1-3c0.3-1.2,0.4-2.4,0.2-3.6c-0.3-2.4-1.4-4.7-3.1-6.4
	c-1-1-2.1-1.7-3.3-2.3c-1.3-0.6-2.6-0.9-4-0.9c-6-0.2-10.9,4.5-11.1,10.4c0,0.7,0,1.3,0.1,2c0.5,3.4,2.7,6.4,5.8,8l0.8,0.4
	c0,0.1,0,0.3,0.1,0.5c0.1,0.5,0.2,1,0.3,1.5c-3.1-1-5.7-3.1-7.2-6c-0.6-1.1-1-2.3-1.3-3.5c-0.3-1.3-0.3-2.7-0.2-4.1
	c0.4-2.8,1.7-5.4,3.7-7.4c1.1-1.1,2.4-1.9,3.8-2.5c6.4-2.7,13.7,0.3,16.4,6.7c0.9,2.2,1.2,4.6,0.8,6.9c-0.6,4-3.2,7.4-6.8,9.2
	C29.2,35,28.5,35.2,27.9,35.5L27.9,35.5z M28.5,30.6V30c0-0.4,0-0.7,0-1.1c0-0.1-0.1-0.3-0.1-0.4c1.7-1.4,2.6-3.6,2.3-5.9
	c-0.1-0.6-0.3-1.3-0.5-1.9c-0.3-0.7-0.8-1.4-1.3-1.9c-0.6-0.6-1.2-1-1.9-1.3c-1-0.3-1.8-0.5-2.7-0.5c-0.9,0-1.7,0.1-2.6,0.5
	c-0.7,0.3-1.4,0.7-2,1.2s-1.1,1.2-1.4,1.9c-0.3,0.6-0.5,1.2-0.6,1.8c-0.1,0.7-0.1,1.3,0,2c0.2,1.6,1,3.1,2.2,4.1L19.8,29
	c-0.1,0.4-0.1,0.7,0,1.1v0.5c-1.2-0.7-2.2-1.8-2.9-3.1c-0.4-0.7-0.7-1.5-0.9-2.3c-0.2-0.9-0.2-1.8-0.1-2.7c0.2-1.8,1.1-3.5,2.3-4.8
	c0.7-0.7,1.5-1.3,2.4-1.7c1-0.4,2.1-0.7,3.2-0.7s2.2,0.2,3.2,0.6c0.9,0.4,1.8,0.9,2.5,1.6c0.7,0.7,1.3,1.5,1.8,2.4
	c0.4,0.7,0.6,1.5,0.8,2.3c0.1,0.8,0.2,1.7,0,2.5c-0.1,0.8-0.3,1.6-0.6,2.4c-0.7,1.5-1.8,2.8-3.3,3.6L28.5,30.6z M24.2,19.6
	c1.7,0,3.1,1.4,3.1,3s-1.4,3.1-3,3.1c-1.7,0-3.1-1.4-3.1-3C21.1,21,22.5,19.6,24.2,19.6L24.2,19.6z"/>
<path class="st1" d="M23.7,877c-6.4,0-11.6,5.2-11.6,11.6c0,6.4,5.2,11.6,11.6,11.6s11.6-5.2,11.6-11.6l0,0
	C35.3,882.2,30.1,877,23.7,877z M29.7,888.9l-8.5,5.8c-0.1,0-0.1,0.1-0.2,0.1s-0.1,0-0.2,0c-0.1-0.1-0.2-0.2-0.2-0.3v-11.6
	c0-0.1,0.1-0.3,0.2-0.3c0.1-0.1,0.3-0.1,0.4,0l8.5,5.8C29.9,888.4,29.9,888.7,29.7,888.9C29.8,888.9,29.7,888.9,29.7,888.9
	L29.7,888.9z"/>
<path class="st1" d="M33.3,944.3c0,1.7-1.4,3.2-3.2,3.2S27,946,27,944.3l0,0c0-0.4,0.1-0.7,0.2-1.1l0,0l-6.6-4
	c-1,1.5-2.9,1.9-4.4,0.9c-0.9-0.6-1.4-1.6-1.4-2.6c0-1.7,1.4-3.2,3.1-3.2c1.1,0,2.1,0.5,2.7,1.4l6.6-4l0,0c-0.1-0.3-0.2-0.7-0.2-1.1
	c0-1.8,1.4-3.2,3.2-3.2s3.2,1.4,3.2,3.2s-1.4,3.2-3.2,3.2c-1.1,0-2.1-0.6-2.7-1.5l-6.6,4l0,0c0.1,0.4,0.2,0.7,0.2,1.1
	c0,0.4-0.1,0.8-0.2,1.1l0,0l6.6,4c0.9-1.5,2.9-1.9,4.4-1C32.7,942.2,33.3,943.2,33.3,944.3L33.3,944.3z"/>
<path class="st1" d="M28.9,803.8h-9.8c-3.6,0.1-6.5-2.7-6.6-6.2V787c0.1-3.6,3.1-6.4,6.6-6.3h9.8c3.6-0.1,6.5,2.7,6.6,6.3v10.5
	C35.4,801.1,32.4,803.9,28.9,803.8z M19.1,783c-2.3-0.1-4.3,1.7-4.4,4.1v10.5c0.1,2.3,2.1,4.2,4.4,4.1h9.8c2.3,0.1,4.3-1.7,4.4-4.1
	V787c-0.1-2.3-2.1-4.1-4.4-4H19.1z"/>
<path class="st1" d="M24,798.2c-3.3,0-5.9-2.6-5.9-5.9c0-3.3,2.6-5.9,5.9-5.9s5.9,2.6,5.9,5.9S27.3,798.2,24,798.2L24,798.2z
	 M24,788.5c-2.1,0-3.9,1.7-3.9,3.9c0,2.1,1.7,3.9,3.9,3.9c2.1,0,3.9-1.7,3.9-3.9l0,0C27.9,790.2,26.1,788.5,24,788.5z"/>
<path class="st1" d="M31.7,786.2c0,0.8-0.6,1.5-1.5,1.5c-0.8,0-1.4-0.6-1.4-1.5c0-0.8,0.6-1.5,1.4-1.5S31.7,785.4,31.7,786.2
	L31.7,786.2z"/>
<g>
	<g>
		<g>
			<path class="st1" d="M16.4,67.4v11.1c0,1,0.8,1.8,1.8,1.8h1.2v3.8c0,1,0.8,1.7,1.7,1.7s1.7-0.8,1.7-1.7v-3.8h2.3v3.8
				c0,1,0.8,1.7,1.7,1.7s1.7-0.8,1.7-1.7v-3.8h1.3c1,0,1.8-0.8,1.8-1.8V67.4H16.4z M18.7,79.3c-0.8,0-1.5-0.7-1.5-1.5
				s0.7-1.5,1.5-1.5s1.5,0.7,1.5,1.5C20.2,78.7,19.6,79.3,18.7,79.3z M22.8,79.3c0-1.5-0.6-2.8-1.6-3.8s-2.4-1.6-3.8-1.6v-2.2
				c4.2,0,7.6,3.4,7.6,7.6H22.8z M26.5,79.3c0-5.1-3.9-9-9-9v-2.2c6.3,0,11.2,4.9,11.2,11.3h-2.2V79.3z"/>
			<path class="st1" d="M14,67c-1,0-1.7,0.8-1.7,1.7v7.2c0,1,0.8,1.7,1.7,1.7s1.7-0.8,1.7-1.7v-7.2C15.7,67.8,14.9,67,14,67z"/>
			<path class="st1" d="M35.7,68.7c0-1-0.8-1.7-1.7-1.7s-1.7,0.8-1.7,1.7v7.2c0,1,0.8,1.7,1.7,1.7s1.7-0.8,1.7-1.7V68.7z"/>
			<path class="st1" d="M27.8,60.6l1.2-2.2c0.1-0.1,0-0.3-0.1-0.3c-0.1-0.1-0.3,0-0.3,0.1l-1.2,2.2c-1-0.5-2.1-0.7-3.3-0.7
				c-1.2,0-2.3,0.3-3.3,0.7l-1.2-2.2c-0.1-0.1-0.2-0.2-0.3-0.1c-0.1,0-0.2,0.2-0.1,0.3l1.2,2.2c-2.3,1.2-3.9,3.5-3.9,6.2h15.4
				C31.7,64.1,30.1,61.8,27.8,60.6z M20.5,64c-0.3,0-0.7-0.3-0.7-0.7s0.3-0.7,0.7-0.7c0.4,0,0.7,0.3,0.7,0.7
				C21.1,63.7,20.9,64,20.5,64z M27.5,64c-0.3,0-0.7-0.3-0.7-0.7s0.3-0.7,0.7-0.7c0.3,0,0.7,0.3,0.7,0.7S27.9,64,27.5,64z"/>
		</g>
	</g>
</g>
<g>
	<g>
		<path class="st1" d="M28.1,131.8c0,0.2,0.2,0.3,0.3,0.1l7.9-9.2c0.2-0.2,0.1-0.3-0.2-0.4l-8.2-0.1c-0.2,0-0.4,0.2-0.4,0.5
			L28.1,131.8z"/>
		<path class="st1" d="M36.2,120.9c0.3,0,0.3-0.1,0.1-0.3l-15.1-12.8c-0.2-0.2-0.3-0.1-0.3,0.2l2.2,12.5c0.1,0.2,0.3,0.5,0.5,0.5
			L36.2,120.9z M23.9,118.8c0-0.2,0.1-0.5,0.2-0.7c0.2-0.2,0.4-0.3,0.6-0.3s0.5,0.1,0.6,0.2c0.2,0.2,0.3,0.4,0.3,0.6
			s-0.1,0.5-0.2,0.7c-0.2,0.2-0.3,0.3-0.6,0.3c-0.2,0-0.4-0.1-0.6-0.2S23.9,119.1,23.9,118.8z M23.7,115.3L23.7,115.3
			c2.4,0.2,3.9,1.6,4.5,4.2v0.1H27c-0.4-1.8-1.5-2.8-3.2-3L23.7,115.3z M30.3,119.5l-1.2,0.1v-0.1c-0.7-3.2-2.5-4.9-5.4-5.1
			l-0.1-1.3h0.1c3.6,0.2,5.8,2.2,6.6,6.1V119.5z"/>
		<path class="st1" d="M12.1,117.5c-0.2,0.2-0.1,0.3,0.1,0.3l8.5-1c0.2,0,0.4-0.2,0.4-0.5l-1.4-7.9c-0.1-0.2-0.2-0.3-0.4-0.1
			L12.1,117.5z"/>
		<path class="st1" d="M23.1,122.2c-0.2,0-0.6,0-0.8-0.1l-0.1-0.1l-0.1-0.1c-0.1-0.2-0.2-0.5-0.2-0.7l-0.5-2.6
			c0-0.2-0.3-0.4-0.5-0.4l-8.6,0.9c-0.2,0-0.3,0.2-0.1,0.3L26.4,132c0.2,0.2,0.3,0.1,0.3-0.2l-0.5-9.2c0-0.2-0.2-0.5-0.5-0.5
			L23.1,122.2z"/>
	</g>
</g>
<g>
	<path class="st1" d="M23.8,980.1v-0.1c-0.4,0-0.9,0.1-0.9,0.6c0,0.2,0.1,0.4,0.4,0.4c0.2,0,0.3-0.1,0.4-0.3
		C23.9,980.5,23.9,980.3,23.8,980.1L23.8,980.1z M23.8,980.1v-0.1c-0.4,0-0.9,0.1-0.9,0.6c0,0.2,0.1,0.4,0.4,0.4
		c0.2,0,0.3-0.1,0.4-0.3C23.9,980.5,23.9,980.3,23.8,980.1L23.8,980.1z M23.8,980.1v-0.1c-0.4,0-0.9,0.1-0.9,0.6
		c0,0.2,0.1,0.4,0.4,0.4c0.2,0,0.3-0.1,0.4-0.3C23.9,980.5,23.9,980.3,23.8,980.1L23.8,980.1z M23.8,980.1v-0.1
		c-0.4,0-0.9,0.1-0.9,0.6c0,0.2,0.1,0.4,0.4,0.4c0.2,0,0.3-0.1,0.4-0.3C23.9,980.5,23.9,980.3,23.8,980.1L23.8,980.1z M23.8,980.1
		v-0.1c-0.4,0-0.9,0.1-0.9,0.6c0,0.2,0.1,0.4,0.4,0.4c0.2,0,0.3-0.1,0.4-0.3C23.9,980.5,23.9,980.3,23.8,980.1L23.8,980.1z
		 M23.8,980.1v-0.1c-0.4,0-0.9,0.1-0.9,0.6c0,0.2,0.1,0.4,0.4,0.4c0.2,0,0.3-0.1,0.4-0.3C23.9,980.5,23.9,980.3,23.8,980.1
		L23.8,980.1z M23.8,980.1v-0.1c-0.4,0-0.9,0.1-0.9,0.6c0,0.2,0.1,0.4,0.4,0.4c0.2,0,0.3-0.1,0.4-0.3
		C23.9,980.5,23.9,980.3,23.8,980.1L23.8,980.1z M23.8,980.1v-0.1c-0.4,0-0.9,0.1-0.9,0.6c0,0.2,0.1,0.4,0.4,0.4
		c0.2,0,0.3-0.1,0.4-0.3C23.9,980.5,23.9,980.3,23.8,980.1L23.8,980.1z M23.8,980.1v-0.1c-0.4,0-0.9,0.1-0.9,0.6
		c0,0.2,0.1,0.4,0.4,0.4c0.2,0,0.3-0.1,0.4-0.3C23.9,980.5,23.9,980.3,23.8,980.1L23.8,980.1z M23.8,980.1v-0.1
		c-0.4,0-0.9,0.1-0.9,0.6c0,0.2,0.1,0.4,0.4,0.4c0.2,0,0.3-0.1,0.4-0.3C23.9,980.5,23.9,980.3,23.8,980.1L23.8,980.1z M23.8,980.1
		v-0.1c-0.4,0-0.9,0.1-0.9,0.6c0,0.2,0.1,0.4,0.4,0.4c0.2,0,0.3-0.1,0.4-0.3C23.9,980.5,23.9,980.3,23.8,980.1L23.8,980.1z
		 M23.8,980.1v-0.1c-0.4,0-0.9,0.1-0.9,0.6c0,0.2,0.1,0.4,0.4,0.4c0.2,0,0.3-0.1,0.4-0.3C23.9,980.5,23.9,980.3,23.8,980.1
		L23.8,980.1z M23.8,980.1v-0.1c-0.4,0-0.9,0.1-0.9,0.6c0,0.2,0.1,0.4,0.4,0.4c0.2,0,0.3-0.1,0.4-0.3
		C23.9,980.5,23.9,980.3,23.8,980.1L23.8,980.1z M23.8,980.1v-0.1c-0.4,0-0.9,0.1-0.9,0.6c0,0.2,0.1,0.4,0.4,0.4
		c0.2,0,0.3-0.1,0.4-0.3C23.9,980.5,23.9,980.3,23.8,980.1L23.8,980.1z M9.5,972.4v23h29v-23H9.5z M25.2,980.9c0-0.1,0-0.2,0.1-0.3
		l1.1-1.6h-1c-0.1,0-0.1,0-0.1-0.1v-0.4c0-0.1,0-0.1,0.1-0.1h1.9c0.1,0,0.1,0,0.1,0.1v0.4c0,0.1,0,0.1-0.1,0.3l-1,1.4
		c0.4,0,0.8,0,1.1,0.2c0.1,0,0.1,0.1,0.1,0.2v0.4c0,0.1-0.1,0.1-0.1,0.1c-0.6-0.3-1.4-0.3-2,0c-0.1,0-0.1,0-0.1-0.1V980.9z
		 M26.5,982.1c-0.1-0.2-0.9-0.1-1.2,0c-0.1,0-0.1-0.1,0-0.1c0.6-0.4,1.6-0.3,1.7-0.2c0.1,0.1,0,1.1-0.6,1.6c-0.1,0.1-0.2,0-0.1,0
		C26.4,983,26.7,982.3,26.5,982.1z M23.8,979.5L23.8,979.5c0-0.2,0-0.3-0.1-0.4c-0.1-0.1-0.2-0.1-0.3-0.1c-0.2,0-0.4,0.1-0.5,0.3
		c0,0,0,0.1-0.1,0.1l-0.6-0.1c0,0-0.1,0-0.1-0.1c0.1-0.7,0.7-0.9,1.3-0.9c0.3,0,0.6,0.1,0.9,0.3c0.3,0.3,0.3,0.6,0.3,1v0.9
		c0,0.3,0.1,0.4,0.2,0.5c0,0,0,0.1,0,0.1c-0.1,0.1-0.3,0.3-0.4,0.4c0,0-0.1,0-0.1,0c-0.2-0.1-0.2-0.2-0.3-0.4
		c-0.3,0.3-0.5,0.4-1,0.4c-0.5,0-0.9-0.3-0.9-0.9c0-0.4,0.3-0.8,0.6-0.9C23.1,979.5,23.5,979.5,23.8,979.5L23.8,979.5z M17.7,978.4
		c0-0.1,0-0.1,0.1-0.1h0.5c0.1,0,0.1,0,0.1,0.1v0.4h0c0.1-0.4,0.4-0.5,0.8-0.5c0.4,0,0.6,0.2,0.8,0.5c0.1-0.4,0.5-0.5,0.8-0.5
		c0.2,0,0.5,0.1,0.7,0.3c0.2,0.2,0.1,0.6,0.1,0.9v1.9c0,0.1,0,0.1-0.1,0.1h-0.6c-0.1,0-0.1,0-0.1-0.1v-1.6c0-0.1,0-0.4,0-0.6
		c0-0.2-0.2-0.3-0.3-0.3c-0.1,0-0.3,0.1-0.4,0.2c0,0.1,0,0.4,0,0.6v1.6c0,0.1,0,0.1-0.1,0.1h-0.6c-0.1,0-0.1,0-0.1-0.1v-1.6
		c0-0.3,0.1-0.8-0.4-0.8c-0.4,0-0.4,0.5-0.4,0.8v1.6c0,0.1,0,0.1-0.1,0.1h-0.6c-0.1,0-0.1,0-0.1-0.1V978.4z M22.3,983.1
		c1.2,0,2.5-0.2,3.7-0.7c0.2-0.1,0.3,0.1,0.2,0.2c-1.1,0.8-2.7,1.2-4,1.2c-1.9,0-3.6-0.7-4.9-1.8c-0.1-0.1,0-0.2,0.1-0.1
		C18.8,982.6,20.5,983.1,22.3,983.1z M16.3,979.5L16.3,979.5c0-0.2,0-0.3-0.1-0.4c-0.1-0.1-0.2-0.1-0.3-0.1c-0.2,0-0.4,0.1-0.5,0.3
		c0,0,0,0.1-0.1,0.1l-0.6-0.1c0,0-0.1,0-0.1-0.1c0.1-0.7,0.7-0.9,1.3-0.9c0.3,0,0.6,0.1,0.9,0.3c0.3,0.3,0.3,0.6,0.3,1v0.9
		c0,0.3,0.1,0.4,0.2,0.5c0,0,0,0.1,0,0.1c-0.1,0.1-0.3,0.3-0.4,0.4c0,0-0.1,0-0.1,0c-0.2-0.1-0.2-0.2-0.3-0.4
		c-0.3,0.3-0.5,0.4-1,0.4c-0.5,0-0.9-0.3-0.9-0.9c0-0.4,0.3-0.8,0.6-0.9C15.5,979.5,15.9,979.5,16.3,979.5L16.3,979.5z M20.5,989.2
		c0,0.1-0.1,0.1-0.2,0.1h-0.5c-0.1,0-0.2,0-0.2-0.1v-2.4c0-0.2,0-0.4-0.1-0.5c-0.1-0.1-0.3-0.2-0.5-0.2c-0.4,0-0.7,0.1-1.1,0.3v2.8
		c0,0.1-0.1,0.1-0.2,0.1h-0.5c-0.1,0-0.2,0-0.2-0.1v-2.4c0-0.2,0-0.4-0.1-0.5c-0.1-0.1-0.3-0.2-0.5-0.2c-0.4,0-0.8,0.1-1.1,0.3v2.8
		c0,0.1-0.1,0.1-0.2,0.1h-0.5c-0.1,0-0.2,0-0.2-0.1v-3.5c0-0.1,0.1-0.1,0.2-0.1h0.3c0,0,0.1,0,0.1,0c0,0,0,0.1,0.1,0.1l0,0.2
		c0.5-0.3,1-0.5,1.4-0.5c0.5,0,0.8,0.2,1,0.5c0.5-0.4,1-0.5,1.5-0.5c0.4,0,0.6,0.1,0.9,0.3c0.2,0.2,0.3,0.5,0.3,0.8V989.2z
		 M24.7,989.3c0,0.1,0,0.1-0.1,0.1h-0.3c0,0-0.1,0-0.1,0c0,0,0-0.1-0.1-0.1l0-0.3c-0.5,0.3-1,0.5-1.5,0.5c-0.4,0-0.6-0.1-0.8-0.3
		c-0.2-0.2-0.3-0.5-0.3-0.8v-2.6c0-0.1,0-0.1,0.1-0.1h0.5c0.1,0,0.1,0,0.1,0.1v2.3c0,0.3,0,0.5,0.2,0.6c0.1,0.1,0.3,0.2,0.5,0.2
		c0.4,0,0.7-0.1,1.1-0.4v-2.8c0-0.1,0-0.1,0.1-0.1h0.5c0.1,0,0.1,0,0.1,0.1V989.3z M27.8,989.2c-0.3,0.2-0.6,0.3-1.1,0.3
		c-0.4,0-0.8-0.1-1.1-0.2c-0.1,0-0.1,0-0.1-0.1c0,0,0-0.1,0-0.1v-0.2c0-0.1,0-0.1,0.1-0.1c0,0,0.1,0,0.2,0c0.3,0.1,0.7,0.2,1,0.2
		c0.2,0,0.4,0,0.6-0.1c0.1-0.1,0.2-0.2,0.2-0.4c0-0.1,0-0.2-0.1-0.3c-0.1-0.1-0.2-0.1-0.4-0.2l-0.6-0.2c-0.6-0.2-0.8-0.6-0.8-1.1
		c0-0.3,0.1-0.6,0.4-0.8c0.3-0.2,0.6-0.3,1-0.3c0.3,0,0.6,0.1,1,0.2c0.1,0,0.1,0,0.1,0.1c0,0,0,0.1,0,0.1v0.2c0,0.1,0,0.1-0.1,0.1
		c0,0-0.1,0-0.2,0c-0.3-0.1-0.5-0.1-0.8-0.1c-0.5,0-0.7,0.2-0.7,0.5c0,0.1,0,0.2,0.1,0.3c0.1,0.1,0.2,0.2,0.5,0.3l0.6,0.2
		c0.3,0.1,0.5,0.3,0.6,0.4c0.1,0.2,0.2,0.4,0.2,0.6C28.2,988.7,28,989,27.8,989.2z M29.7,989.4c0,0.1,0,0.2-0.2,0.2H29
		c-0.1,0-0.2-0.1-0.2-0.2v-3.6c0-0.1,0-0.2,0.2-0.2h0.5c0.1,0,0.2,0,0.2,0.1V989.4z M29.6,985c-0.1,0.1-0.2,0.1-0.4,0.1
		c-0.1,0-0.3,0-0.4-0.1c-0.1-0.1-0.1-0.2-0.1-0.4s0-0.3,0.1-0.4c0.1-0.1,0.2-0.1,0.4-0.1c0.1,0,0.3,0,0.4,0.1
		c0.1,0.1,0.1,0.2,0.1,0.4S29.7,984.9,29.6,985z M29.2,981.5c-0.9,0-1.3-0.7-1.3-1.6c0-0.9,0.5-1.6,1.3-1.6c0.9,0,1.3,0.7,1.3,1.6
		C30.5,980.8,30,981.5,29.2,981.5z M33.4,988.9v0.2c0,0.1,0,0.1,0,0.1c0,0-0.1,0-0.1,0.1c-0.2,0.1-0.5,0.2-0.9,0.2
		c-0.6,0-1.1-0.2-1.4-0.5c-0.3-0.3-0.5-0.8-0.5-1.5c0-0.7,0.2-1.1,0.5-1.5s0.8-0.5,1.4-0.5c0.3,0,0.6,0,0.8,0.1c0.1,0,0.1,0,0.1,0.1
		c0,0,0,0.1,0,0.2v0.2c0,0.1,0,0.2-0.1,0.2c0,0-0.1,0-0.1,0c-0.2-0.1-0.4-0.1-0.6-0.1c-0.4,0-0.8,0.1-1,0.3c-0.2,0.2-0.3,0.6-0.3,1
		v0.1c0,0.5,0.1,0.8,0.3,1c0.2,0.2,0.5,0.3,0.9,0.3c0.2,0,0.5,0,0.7-0.1c0,0,0.1,0,0.1,0C33.4,988.8,33.4,988.9,33.4,988.9z
		 M33.4,981.4c0,0,0,0.1-0.1,0.1h-0.6c-0.1,0-0.1,0-0.1-0.1v-1.6c0-0.3,0-0.8-0.4-0.8c-0.2,0-0.3,0.1-0.4,0.2
		c-0.1,0.2-0.1,0.4-0.1,0.6v1.6c0,0.1,0,0.1-0.1,0.1h-0.6c-0.1,0-0.1,0-0.1-0.1v-3c0,0,0-0.1,0.1-0.1h0.5c0.1,0,0.1,0,0.1,0.1v0.4h0
		c0.2-0.4,0.4-0.6,0.8-0.6c0.3,0,0.5,0.1,0.7,0.4c0.1,0.2,0.1,0.6,0.2,0.9V981.4z M23.3,980.9c0.2,0,0.3-0.1,0.4-0.3
		c0.1-0.2,0.1-0.4,0.1-0.6h0v-0.1c-0.4,0-0.9,0.1-0.9,0.6C23,980.7,23.1,980.9,23.3,980.9z M23.8,980.1v-0.1c-0.4,0-0.9,0.1-0.9,0.6
		c0,0.2,0.1,0.4,0.4,0.4c0.2,0,0.3-0.1,0.4-0.3C23.9,980.5,23.9,980.3,23.8,980.1L23.8,980.1z M23.8,980.1v-0.1
		c-0.4,0-0.9,0.1-0.9,0.6c0,0.2,0.1,0.4,0.4,0.4c0.2,0,0.3-0.1,0.4-0.3C23.9,980.5,23.9,980.3,23.8,980.1L23.8,980.1z M23.8,980.1
		v-0.1c-0.4,0-0.9,0.1-0.9,0.6c0,0.2,0.1,0.4,0.4,0.4c0.2,0,0.3-0.1,0.4-0.3C23.9,980.5,23.9,980.3,23.8,980.1L23.8,980.1z
		 M23.8,980.1v-0.1c-0.4,0-0.9,0.1-0.9,0.6c0,0.2,0.1,0.4,0.4,0.4c0.2,0,0.3-0.1,0.4-0.3C23.9,980.5,23.9,980.3,23.8,980.1
		L23.8,980.1z M23.8,980.1v-0.1c-0.4,0-0.9,0.1-0.9,0.6c0,0.2,0.1,0.4,0.4,0.4c0.2,0,0.3-0.1,0.4-0.3
		C23.9,980.5,23.9,980.3,23.8,980.1L23.8,980.1z M23.8,980.1v-0.1c-0.4,0-0.9,0.1-0.9,0.6c0,0.2,0.1,0.4,0.4,0.4
		c0.2,0,0.3-0.1,0.4-0.3C23.9,980.5,23.9,980.3,23.8,980.1L23.8,980.1z M23.8,980.1v-0.1c-0.4,0-0.9,0.1-0.9,0.6
		c0,0.2,0.1,0.4,0.4,0.4c0.2,0,0.3-0.1,0.4-0.3C23.9,980.5,23.9,980.3,23.8,980.1L23.8,980.1z M23.8,980.1v-0.1
		c-0.4,0-0.9,0.1-0.9,0.6c0,0.2,0.1,0.4,0.4,0.4c0.2,0,0.3-0.1,0.4-0.3C23.9,980.5,23.9,980.3,23.8,980.1L23.8,980.1z M23.8,980.1
		v-0.1c-0.4,0-0.9,0.1-0.9,0.6c0,0.2,0.1,0.4,0.4,0.4c0.2,0,0.3-0.1,0.4-0.3C23.9,980.5,23.9,980.3,23.8,980.1L23.8,980.1z
		 M23.8,980.1v-0.1c-0.4,0-0.9,0.1-0.9,0.6c0,0.2,0.1,0.4,0.4,0.4c0.2,0,0.3-0.1,0.4-0.3C23.9,980.5,23.9,980.3,23.8,980.1
		L23.8,980.1z M23.8,980.1v-0.1c-0.4,0-0.9,0.1-0.9,0.6c0,0.2,0.1,0.4,0.4,0.4c0.2,0,0.3-0.1,0.4-0.3
		C23.9,980.5,23.9,980.3,23.8,980.1L23.8,980.1z M23.8,980.1v-0.1c-0.4,0-0.9,0.1-0.9,0.6c0,0.2,0.1,0.4,0.4,0.4
		c0.2,0,0.3-0.1,0.4-0.3C23.9,980.5,23.9,980.3,23.8,980.1L23.8,980.1z"/>
	<path class="st1" d="M29.2,980.9c-0.5,0-0.5-0.8-0.5-1.1c0-0.4,0-0.9,0.5-0.9c0.2,0,0.3,0.1,0.4,0.3c0.1,0.2,0.1,0.5,0.1,0.8
		C29.6,980.3,29.6,980.9,29.2,980.9z"/>
	<path class="st1" d="M16.2,980.6c-0.1,0.2-0.2,0.3-0.4,0.3c-0.2,0-0.4-0.2-0.4-0.4c0-0.5,0.4-0.6,0.9-0.6v0.1
		C16.3,980.3,16.3,980.5,16.2,980.6z"/>
</g>
<g>
	<circle class="st1" cx="24.1" cy="1027.9" r="2.8"/>
	<g>
		<g>
			<path class="st1" d="M12,1027.9c0,2.8,1.2,5.3,3,7.1l-1.8,1.8c-2.3-2.3-3.7-5.4-3.7-8.9s1.4-6.6,3.7-8.9l1.8,1.8
				C13.2,1022.6,12,1025.1,12,1027.9z"/>
			<path class="st1" d="M17.9,1032.1l-1.7,1.7c-1.5-1.5-2.5-3.6-2.5-5.9c0-2.3,0.9-4.4,2.5-5.9l1.7,1.7c-1.1,1.1-1.8,2.5-1.8,4.2
				C16.1,1029.5,16.8,1031,17.9,1032.1z"/>
			<path class="st1" d="M19.3,1027.9c0,0.8,0.3,1.5,0.7,2.1l-1,1c-0.7-0.8-1.1-1.9-1.1-3.1c0-1.2,0.4-2.3,1.1-3.1l1,1
				C19.6,1026.3,19.3,1027.1,19.3,1027.9z"/>
		</g>
	</g>
	<g>
		<g>
			<path class="st1" d="M36,1027.9c0,2.8-1.2,5.3-3,7.1l1.8,1.8c2.3-2.3,3.7-5.4,3.7-8.9s-1.4-6.6-3.7-8.9l-1.8,1.8
				C34.8,1022.6,36,1025.1,36,1027.9z"/>
			<path class="st1" d="M30.1,1032.1l1.7,1.7c1.5-1.5,2.5-3.6,2.5-5.9c0-2.3-0.9-4.4-2.5-5.9l-1.7,1.7c1.1,1.1,1.8,2.5,1.8,4.2
				C31.9,1029.5,31.2,1031,30.1,1032.1z"/>
			<path class="st1" d="M28.7,1027.9c0,0.8-0.3,1.5-0.7,2.1l1,1c0.7-0.8,1.1-1.9,1.1-3.1c0-1.2-0.4-2.3-1.1-3.1l-1,1
				C28.4,1026.3,28.7,1027.1,28.7,1027.9z"/>
		</g>
	</g>
	<polygon class="st1" points="25.5,1031.8 22.4,1031.8 20.6,1044.8 23.8,1044.8 	"/>
</g>
</svg>
