<?xml version="1.0" encoding="UTF-8"?>
<svg width="20px" height="20px" viewBox="0 0 20 20" version="1.1" xmlns="http://www.w3.org/2000/svg" xmlns:xlink="http://www.w3.org/1999/xlink">
    <!-- Generator: sketchtool 61.2 (101010) - https://sketch.com -->
    <title>0B8CC30A-4318-41B6-BD04-DA90A37F1C54</title>
    <desc>Created with sketchtool.</desc>
    <defs>
        <path d="M14.0249436,11.0031934 L14.01495,11.0031934 C14.4047011,10.0035482 14.3997043,9.77263018 14.0099532,9.38276856 L11.423605,6.69372303 C10.6431035,5.91300014 9.37591285,5.86201824 8.59541134,6.64274112 L6.01006253,9.20083314 C5.62031145,9.5916944 5.0107008,10.2114744 6.01006253,10.6023357 L6.01006253,10.5953382 C6.01006253,10.9861994 7.03240958,10.9822008 7.42316002,10.5923392 L8.15469281,9.85859966 C8.46949176,9.54371143 9.00814773,9.76463302 9.00814773,10.2104748 L9.00814773,19.0003548 C9.00814773,19.552159 9.53581073,20 10.0874584,20 L10.1284322,20 C10.6800799,20 11.0068712,19.552159 11.0068712,19.0003548 L11.0068712,10.2104748 C11.0068712,9.76463302 11.5445278,9.54171214 11.8593268,9.85660037 L12.5918589,10.7962668 C12.98161,11.1861285 13.6341932,11.0031934 14.0249436,11.0031934 M14.0049564,14.0021289 C12.6828008,14.0021289 12.6847996,12.0028386 14.0049564,12.0028386 C15.0602824,12.0028386 15.8197973,12.0738134 16.7302159,11.4520341 C19.1446738,9.80062024 17.8894755,5.90800192 14.904382,6.01496395 C13.5722328,-0.588692099 3.18386755,1.64551487 5.24754953,8.44510138 C3.15488606,6.78069216 0.700453636,10.0055475 2.80011264,11.5669933 C4.30115396,12.6825973 7.00942426,11.1561391 7.00942426,13.0024837 C7.00942426,14.2600374 5.58233571,14.0021289 4.21221077,14.0021289 C0.878340025,14.0021289 -1.1763477,10.4433921 0.732433212,7.72235792 C1.64385111,6.42281918 3.07593648,6.10193308 3.07593648,6.10193308 C3.73551522,0.990747283 9.56978903,-1.7082947 13.8910292,1.18467845 C15.7458445,2.4272374 16.4483958,4.24259305 16.4483958,4.24259305 C21.5801183,5.80203953 21.4721873,14.0021289 14.0049564,14.0021289" id="path-1"></path>
    </defs>
    <g id="Asset-Artboard-Page" stroke="none" stroke-width="1" fill="none" fill-rule="evenodd">
        <g id="Icon/20px/cloud_up-[#1062]-Icon/20px/cloud_up-[#1063]">
            <mask id="mask-2" fill="white">
                <use xlink:href="#path-1"></use>
            </mask>
            <use id="cloud_up-[#1063]" fill-opacity="0" fill="#FFFFFF" xlink:href="#path-1"></use>
            <g id="⚙️Atoms/Colour/White-⚙️Atoms/Colour/Grey-Darker/1---100%" mask="url(#mask-2)" fill="#9EA0A5">
                <g transform="translate(-1.000000, -1.000000)" id="Colour">
                    <rect x="0" y="0" width="22" height="22"></rect>
                </g>
            </g>
        </g>
    </g>
</svg>