<svg xmlns="http://www.w3.org/2000/svg" width="35" height="37" viewBox="0 0 63.419 67"><defs><style>.a{fill:#1976d2;}.b{fill:none;}.c{fill:#fff;}</style></defs><g transform="translate(4.26 7)"><g transform="translate(-4.26 -110)"><path class="a" d="M63.419,139.7c0,16.735-13.618,30.3-31.708,30.3C14.2,170,0,156.433,0,139.7c0-12.353,7.733-22.547,18.827-27.265,0,0-2.674-8.649-2.47-8.864.179-.19,7.784,5.316,7.784,5.316S31.281,103,31.738,103c.338,0,8.732,6.456,8.732,6.456s6.835-4.329,7.025-4.179c.168.132-2.9,7.153-2.9,7.153C55.684,117.149,63.419,127.345,63.419,139.7Z" transform="translate(0 0)"/></g><path class="b" d="M0,0H52.535V52.535H0Z"/><path class="c" d="M15.658,24.8,8.465,17.609,3.4,22.674,15.658,34.932,41.926,8.665,36.861,3.6Z" transform="translate(4.042 9.658)"/></g></svg>