<?xml version="1.0" encoding="UTF-8"?>
<svg width="18px" height="19px" viewBox="0 0 18 19" version="1.1" xmlns="http://www.w3.org/2000/svg" xmlns:xlink="http://www.w3.org/1999/xlink">
    <!-- Generator: sketchtool 63.1 (101010) - https://sketch.com -->
    <title>7ABA59E3-AE51-4896-9691-4D46E7059FC2</title>
    <desc>Created with sketchtool.</desc>
    <defs>
        <path d="M15.8766355,10.1592219 C15.9136455,9.86314262 15.9414029,9.56706329 15.9414029,9.252479 C15.9414029,8.93789472 15.9136455,8.64181539 15.8766355,8.34573606 L17.8289086,6.81907702 C18.0047057,6.68028984 18.0509681,6.43047291 17.9399384,6.22691837 L16.0894426,3.02556063 C16.0061702,2.87752097 15.8488781,2.79424866 15.6823335,2.79424866 C15.6268186,2.79424866 15.5713037,2.80350114 15.5250413,2.8220061 L13.2211741,3.747254 C12.7400452,3.37715484 12.2219063,3.07182303 11.6575051,2.84051105 L11.3059109,0.388604118 C11.2781535,0.166544622 11.0838514,0 10.8525394,0 L7.15154784,0 C6.92023586,0 6.7259338,0.166544622 6.69817637,0.388604118 L6.34658216,2.84051105 C5.78218094,3.07182303 5.26404212,3.38640731 4.78291321,3.747254 L2.47904594,2.8220061 C2.42353107,2.80350114 2.36801619,2.79424866 2.31250132,2.79424866 C2.15520918,2.79424866 1.99791703,2.87752097 1.91464472,3.02556063 L0.064148921,6.22691837 C-0.0561333061,6.43047291 -0.000618432059,6.68028984 0.175178669,6.81907702 L2.12745174,8.34573606 C2.09044182,8.64181539 2.06268439,8.94714719 2.06268439,9.252479 C2.06268439,9.55781081 2.09044182,9.86314262 2.12745174,10.1592219 L0.175178669,11.685881 C-0.000618432059,11.8246682 -0.0468808271,12.0744851 0.064148921,12.2780396 L1.91464472,15.4793974 C1.99791703,15.627437 2.15520918,15.7107093 2.3217538,15.7107093 C2.37726867,15.7107093 2.43278355,15.7014569 2.47904594,15.6829519 L4.78291321,14.757704 C5.26404212,15.1278032 5.78218094,15.433135 6.34658216,15.6644469 L6.69817637,18.1163539 C6.7259338,18.3384134 6.92023586,18.504958 7.15154784,18.504958 L10.8525394,18.504958 C11.0838514,18.504958 11.2781535,18.3384134 11.3059109,18.1163539 L11.6575051,15.6644469 C12.2219063,15.433135 12.7400452,15.1185507 13.2211741,14.757704 L15.5250413,15.6829519 C15.5805562,15.7014569 15.6360711,15.7107093 15.691586,15.7107093 C15.8488781,15.7107093 16.0061702,15.627437 16.0894426,15.4793974 L17.9399384,12.2780396 C18.0509681,12.0744851 18.0047057,11.8246682 17.8289086,11.685881 L15.8766355,10.1592219 Z M14.0446447,8.57704803 C14.0816546,8.86387488 14.0909071,9.05817694 14.0909071,9.252479 C14.0909071,9.44678106 14.0724021,9.6503356 14.0446447,9.92790997 L13.91511,10.9734401 L14.7385806,11.6211136 L15.7378483,12.3983219 L15.0901748,13.5178718 L13.91511,13.0459954 L12.9528522,12.6573913 L12.1201291,13.2865598 C11.7222725,13.5826392 11.3429208,13.8046987 10.9635692,13.9619908 L9.98280641,14.3598474 L9.83476675,15.4053775 L9.64971717,16.6544622 L8.35437011,16.6544622 L8.17857301,15.4053775 L8.03053334,14.3598474 L7.04977057,13.9619908 C6.65191397,13.7954462 6.28181481,13.5826392 5.91171565,13.3050648 L5.06974006,12.6573913 L4.08897729,13.0552479 L2.91391245,13.5271243 L2.26623892,12.4075743 L3.26550666,11.6303661 L4.08897729,10.9826926 L3.95944258,9.93716245 C3.93168514,9.6503356 3.91318019,9.43752858 3.91318019,9.252479 C3.91318019,9.06742942 3.93168514,8.8546224 3.95944258,8.57704803 L4.08897729,7.53151791 L3.26550666,6.88384438 L2.26623892,6.10663614 L2.91391245,4.98708618 L4.08897729,5.45896261 L5.0512351,5.84756673 L5.88395821,5.21839816 C6.28181481,4.92231883 6.66116645,4.70025933 7.04051809,4.54296719 L8.02128086,4.14511059 L8.16932053,3.09958047 L8.35437011,1.8504958 L9.64046469,1.8504958 L9.81626179,3.09958047 L9.96430145,4.14511059 L10.9450642,4.54296719 C11.3429208,4.70951181 11.71302,4.92231883 12.0831191,5.1998932 L12.9250947,5.84756673 L13.9058575,5.44971013 L15.0809223,4.9778337 L15.7285959,6.09738366 L14.7385806,6.88384438 L13.91511,7.53151791 L14.0446447,8.57704803 Z M9.00204364,5.5514874 C6.95724578,5.5514874 5.30105204,7.20768114 5.30105204,9.252479 C5.30105204,11.2972769 6.95724578,12.9534706 9.00204364,12.9534706 C11.0468415,12.9534706 12.7030352,11.2972769 12.7030352,9.252479 C12.7030352,7.20768114 11.0468415,5.5514874 9.00204364,5.5514874 Z M9.00204364,11.1029748 C7.98427095,11.1029748 7.15154784,10.2702517 7.15154784,9.252479 C7.15154784,8.23470631 7.98427095,7.4019832 9.00204364,7.4019832 C10.0198163,7.4019832 10.8525394,8.23470631 10.8525394,9.252479 C10.8525394,10.2702517 10.0198163,11.1029748 9.00204364,11.1029748 Z" id="path-1"></path>
    </defs>
    <g id="Page-1" stroke="none" stroke-width="1" fill="none" fill-rule="evenodd">
        <g id="New-Episode-Connected" transform="translate(-880.000000, -684.000000)">
            <g id="icons/ic/outline-settings-24px" transform="translate(880.000000, 684.000000)">
                <mask id="mask-2" fill="white">
                    <use xlink:href="#path-1"></use>
                </mask>
                <g fill-rule="nonzero"></g>
                <g id="🎨-color" mask="url(#mask-2)" fill="#BDBDBD">
                    <g transform="translate(-3.000000, -3.000000)" id="BG">
                        <rect x="0" y="0" width="24" height="24"></rect>
                    </g>
                </g>
            </g>
        </g>
    </g>
</svg>