<?xml version="1.0" encoding="utf-8"?>
<!-- Generator: Adobe Illustrator 24.1.0, SVG Export Plug-In . SVG Version: 6.00 Build 0)  -->
<svg version="1.1" id="Layer_1" xmlns="http://www.w3.org/2000/svg" xmlns:xlink="http://www.w3.org/1999/xlink" x="0px" y="0px"
	 viewBox="0 0 720 720" style="enable-background:new 0 0 720 720;" xml:space="preserve">
<style type="text/css">
	.st0{fill:#CA1818;}
	.st1{fill:none;stroke:#FFFFFF;stroke-width:68.7886;}
</style>
<g id="Group_229_1_" transform="translate(7.923 14.434)">
	<path id="Path_68_1_" class="st0" d="M517.6,705.6H183.8v-2.3c-75.4-9.1-132.6-73.1-132.6-148.6V312.4
		c-27.4-6.9-43.4-34.3-36.6-59.4c4.6-22.9,25.1-38.9,48-38.9h61.7V35.9c0-27.4,22.9-50.3,50.3-50.3S225,8.4,225,35.9v180.6h253.7
		V35.9c0-27.4,22.9-50.3,50.3-50.3c27.4,0,50.3,22.9,50.3,50.3v180.6H641c27.4,0,50.3,22.9,50.3,50.3c0,13.7-4.6,25.1-13.7,34.3
		c-6.9,6.9-13.7,11.4-22.9,13.7V557C652.4,632.4,593,696.4,517.6,705.6L517.6,705.6z"/>
	<line id="Line_23_1_" class="st1" x1="195.3" y1="314.7" x2="499.3" y2="618.7"/>
	<line id="Line_24_1_" class="st1" x1="499.3" y1="314.7" x2="195.3" y2="618.7"/>
</g>
</svg>
