<svg xmlns="http://www.w3.org/2000/svg" width="29.467" height="32" viewBox="0 0 29.467 32"><defs><style>.a{fill:#adda12;}.b{fill:none;}.c{fill:#444;}</style></defs><g transform="translate(3.451 10.353)"><path class="a" d="M7796.551,175.979h-14.472V175.9a6.593,6.593,0,0,1-5.789-6.548V158.772a2.174,2.174,0,0,1,.506-4.287h2.7v-7.9a2.17,2.17,0,1,1,4.341,0v7.9h11.071v-7.9a2.17,2.17,0,1,1,4.341,0v7.9h2.658a2.181,2.181,0,0,1,2.188,2.171,2.233,2.233,0,0,1-.633,1.538,2.09,2.09,0,0,1-1.031.579v10.582a6.59,6.59,0,0,1-5.877,6.566Z" transform="translate(-7778.077 -154.762)"/><path class="b" d="M0,0H21.647V21.647H0Z"/><path class="c" d="M8.451,13.161,5.663,10.373,3.4,12.635l5.051,5.051L19.275,6.863,17.012,4.6Z" transform="translate(-0.333 -0.549)"/></g></svg>