<svg width="16" height="16" viewBox="0 0 16 16" fill="none" xmlns="http://www.w3.org/2000/svg">
<g clip-path="url(#clip0)">
<path d="M7.91834 15.111C7.26143 14.9525 6.59362 14.8298 5.95033 14.6273C5.03053 14.3379 4.23313 13.8144 3.51161 13.1736C3.06407 12.7767 2.99422 12.3332 3.32053 11.9597C3.6414 11.5925 4.09127 11.6048 4.54173 11.9936C7.72881 14.7437 12.5037 13.634 14.0049 9.74467C14.9177 7.37984 14.4799 5.17853 12.7137 3.37231C10.921 1.53982 8.70854 1.07238 6.33521 2.0102C4.04574 2.91488 2.808 4.70443 2.59512 7.18788C2.58617 7.29259 2.59395 7.39886 2.59395 7.54787C2.81111 7.54787 3.00006 7.53082 3.18472 7.5518C3.51784 7.58944 3.68908 7.9012 3.50247 8.17923C3.0526 8.84784 2.58676 9.50664 2.09991 10.1484C1.90533 10.4043 1.63291 10.3752 1.44339 10.1184C0.981639 9.49095 0.527488 8.85842 0.0927893 8.21236C-0.122225 7.89296 0.0538711 7.57983 0.441481 7.54905C0.615049 7.53532 0.790565 7.54669 0.909649 7.54669C1.07135 6.74025 1.15754 5.95851 1.38735 5.22402C2.42273 1.91314 5.57673 -0.247975 8.98621 0.0224092C12.6662 0.314557 15.4407 2.97075 15.9252 6.53202C15.9379 6.62515 15.9745 6.71476 16 6.80652V8.28668C15.9745 8.37765 15.9396 8.46707 15.9249 8.55981C15.4802 11.357 13.9827 13.3595 11.4041 14.48C10.6695 14.799 9.84472 14.9071 9.06113 15.1118L7.91834 15.111Z" fill="#007FFF"/>
<path d="M8.97734 10.9693C8.91897 11.4006 9.09682 11.9553 8.44341 12.0555C8.08226 12.1108 7.95112 11.8724 7.83553 11.0428C7.46583 10.9699 7.09184 10.9126 6.72641 10.8189C6.26077 10.6995 6.04906 10.3722 6.15219 9.98459C6.2631 9.56754 6.58864 9.44441 7.093 9.54538C7.54232 9.63625 7.99916 9.68405 8.45742 9.68813C8.81254 9.69009 9.14021 9.52519 9.21104 9.12501C9.28304 8.71737 8.99953 8.49758 8.68216 8.33935C8.45236 8.22406 8.20407 8.14661 7.96882 8.04131C7.63472 7.89191 7.28427 7.76681 6.97644 7.57172C5.74512 6.79331 5.78268 5.14709 7.04513 4.41398C7.31113 4.25947 7.61196 4.16575 7.9194 4.03418C7.95676 3.63772 7.82717 3.11108 8.45489 3.0303C8.79892 2.98598 8.92403 3.20048 9.05596 3.97007C9.35775 4.02438 9.66734 4.05987 9.96583 4.13869C10.3665 4.24437 10.5523 4.58103 10.4478 4.952C10.3527 5.28983 10.0314 5.43806 9.63523 5.37355C9.24918 5.31081 8.85573 5.25591 8.46637 5.2616C8.14667 5.26552 7.83534 5.38943 7.76587 5.76785C7.70166 6.11765 7.94937 6.30137 8.21128 6.42666C8.73665 6.67861 9.29102 6.87488 9.80686 7.14428C10.7103 7.61486 11.0609 8.36954 10.8576 9.31893C10.7214 9.95263 10.3299 10.3895 9.76424 10.6677C9.52373 10.7865 9.26143 10.8622 8.97734 10.9693Z" fill="#007FFF"/>
</g>
<defs>
<clipPath id="clip0">
<rect width="16" height="15.1111" fill="white"/>
</clipPath>
</defs>
</svg>
