<svg width="17" height="16" viewBox="0 0 17 16" fill="none" xmlns="http://www.w3.org/2000/svg">
<g clip-path="url(#clip0)">
<path d="M3.14868 7.11195C3.13058 7.27931 3.10619 7.43562 3.09675 7.59192C3.01648 8.7898 3.29751 9.98418 3.90327 11.0196C4.40986 11.9003 5.13497 12.6346 6.00811 13.151C6.77239 13.6081 7.63064 13.8841 8.51739 13.9578C9.74326 14.0676 10.9722 13.7837 12.0268 13.1471C12.933 12.6138 13.6867 11.8549 14.215 10.9438C14.5699 10.3399 14.791 9.68547 14.9704 9.01367C15.0436 8.73737 15.1718 8.6687 15.4425 8.74528C15.8532 8.86132 16.2648 8.9742 16.6747 9.09182C16.8856 9.15261 16.9611 9.28682 16.9108 9.49365C16.6503 10.5412 16.26 11.5319 15.6424 12.4232C14.525 14.0344 13.0418 15.1554 11.1573 15.6803C8.55201 16.405 6.16627 15.8919 4.0512 14.2199C2.58608 13.061 1.67333 11.5272 1.26416 9.69888C1.03987 8.7099 1.01552 7.68584 1.19256 6.68725C1.21065 6.58541 1.17997 6.5491 1.08397 6.52462C0.809358 6.45436 0.537896 6.37306 0.266431 6.29491C-0.0239181 6.21202 -0.0852938 5.97282 0.132665 5.75889C1.05748 4.84842 1.98361 3.939 2.91105 3.03064C3.11563 2.83013 3.35955 2.89249 3.43037 3.16721C3.75823 4.43713 4.08373 5.7081 4.40686 6.98012C4.47453 7.24458 4.28883 7.41905 4.02209 7.348C3.78052 7.28327 3.53975 7.21301 3.29818 7.14591C3.2549 7.13328 3.20848 7.12537 3.14868 7.11195Z" fill="#007FFF" stroke="white" stroke-width="0.25"/>
<path d="M8.47776 6.22241e-05C8.70044 -0.007832 8.81375 0.0932141 8.83499 0.315831C8.87591 0.756329 8.91788 1.19656 8.96089 1.63653C8.9845 1.87336 8.88221 2.00835 8.64143 2.03124C8.53048 2.0423 8.41953 2.05492 8.30859 2.06123C8.104 2.07386 7.98126 1.98782 7.95922 1.78731C7.90677 1.31049 7.86218 0.833166 7.82546 0.355302C7.8113 0.172946 7.9191 0.0624212 8.10401 0.034002H8.13154L8.47776 6.22241e-05Z" fill="#007FFF" stroke="white" stroke-width="0.25"/>
<path d="M14.9365 7.04011C14.9365 6.82302 15.0097 6.71408 15.1954 6.68645C15.6675 6.61804 16.1396 6.55568 16.6117 6.49937C16.65 6.49314 16.6892 6.49491 16.7268 6.50457C16.7643 6.51424 16.7995 6.53158 16.8301 6.55551C16.8607 6.57945 16.886 6.60947 16.9045 6.64369C16.923 6.6779 16.9342 6.71558 16.9375 6.75435C16.9616 6.88698 16.9805 7.02038 16.9941 7.15458C17.0122 7.34956 16.9273 7.47036 16.7337 7.50193C16.2663 7.57035 15.7976 7.63244 15.3276 7.68823C15.1348 7.71112 15.0184 7.61719 14.9829 7.42299C14.9617 7.28642 14.9499 7.14669 14.9365 7.04011Z" fill="#007FFF" stroke="white" stroke-width="0.25"/>
<path d="M5.95115 2.8419C5.87954 2.78507 5.77174 2.73769 5.72689 2.65559C5.49634 2.23641 5.27838 1.81013 5.06357 1.38226C5.04352 1.34909 5.03062 1.31206 5.02569 1.27358C5.02077 1.2351 5.02393 1.19601 5.03497 1.15883C5.04602 1.12165 5.0647 1.08719 5.08982 1.05769C5.11494 1.02819 5.14593 1.0043 5.18081 0.987552C5.3079 0.911818 5.43927 0.843543 5.57424 0.783085C5.60605 0.76516 5.64119 0.753999 5.67748 0.750282C5.71377 0.746565 5.75044 0.750373 5.7852 0.76148C5.81996 0.772586 5.85207 0.790739 5.87954 0.814827C5.907 0.838916 5.92924 0.868421 5.94485 0.901498C6.1754 1.33173 6.40202 1.76355 6.61368 2.20326C6.63228 2.24901 6.64012 2.29847 6.63657 2.34776C6.63302 2.39705 6.61819 2.44485 6.59322 2.48745C6.43821 2.66981 6.20609 2.74007 5.95115 2.8419Z" fill="#007FFF" stroke="white" stroke-width="0.25"/>
<path d="M16.1737 4.42399C16.1139 4.50293 16.0675 4.60397 15.9864 4.65212C15.5804 4.89447 15.1673 5.12578 14.7519 5.35314C14.7199 5.37427 14.6838 5.38842 14.646 5.39469C14.6082 5.40096 14.5695 5.3992 14.5324 5.38952C14.4953 5.37985 14.4607 5.36249 14.4307 5.33855C14.4008 5.3146 14.3761 5.2846 14.3584 5.25051C14.2779 5.12549 14.2049 4.99579 14.1397 4.8621C14.1207 4.83084 14.1082 4.79601 14.1032 4.75974C14.0981 4.72347 14.1005 4.68653 14.1102 4.65123C14.12 4.61593 14.1368 4.58302 14.1598 4.55452C14.1827 4.52602 14.2112 4.50256 14.2436 4.48556C14.6685 4.2369 15.0957 3.99374 15.5301 3.76402C15.5732 3.7452 15.6202 3.73675 15.6672 3.73935C15.7142 3.74196 15.7599 3.75554 15.8007 3.77902C15.9841 3.9369 16.0746 4.16111 16.1737 4.42399Z" fill="#007FFF" stroke="white" stroke-width="0.25"/>
<path d="M14.3337 2.08334C14.3032 2.16044 14.2656 2.23446 14.2211 2.30438C13.9352 2.67278 13.6467 3.03698 13.3556 3.39695C13.3334 3.43037 13.3044 3.45866 13.2705 3.47998C13.2365 3.5013 13.1985 3.51514 13.1588 3.52059C13.1192 3.52604 13.0788 3.52297 13.0405 3.51159C13.0021 3.50021 12.9665 3.48078 12.9362 3.45458C12.8188 3.37099 12.7063 3.28058 12.5994 3.18381C12.5682 3.16073 12.5421 3.13127 12.523 3.09739C12.5039 3.06351 12.4922 3.02597 12.4885 2.98721C12.4849 2.94845 12.4894 2.90936 12.5019 2.87249C12.5144 2.83563 12.5345 2.80183 12.5609 2.7733C12.852 2.39911 13.1468 2.02783 13.4453 1.65943C13.5696 1.50786 13.7191 1.49443 13.8757 1.6089C13.9863 1.68655 14.0915 1.77175 14.1904 1.86388C14.2456 1.93185 14.2936 2.0054 14.3337 2.08334V2.08334Z" fill="#007FFF" stroke="white" stroke-width="0.25"/>
<path d="M11.7426 0.693164C11.7198 0.772107 11.6899 0.878675 11.6584 0.985247C11.5522 1.3468 11.4483 1.70836 11.3374 2.06833C11.2587 2.31305 11.1367 2.37779 10.8944 2.30516C10.7787 2.27121 10.6583 2.242 10.5481 2.20016C10.379 2.13779 10.3066 2.0115 10.3561 1.83625C10.4868 1.37101 10.6237 0.907614 10.7669 0.446065C10.776 0.410629 10.7922 0.377428 10.8145 0.348447C10.8368 0.319467 10.8647 0.295321 10.8965 0.277465C10.9284 0.259609 10.9635 0.248401 10.9998 0.244547C11.036 0.240692 11.0727 0.244263 11.1076 0.255031C11.2562 0.289722 11.4028 0.332671 11.5467 0.383698C11.6733 0.429484 11.7402 0.524228 11.7426 0.693164Z" fill="#007FFF" stroke="white" stroke-width="0.25"/>
<path d="M8.53825 8.46115C9.13206 9.05446 9.82003 9.62228 10.092 9.35037C10.481 8.96145 10.7211 8.62241 11.5793 9.31212C12.4372 10.0014 11.7781 10.4612 11.4012 10.8378C10.966 11.2728 9.344 10.861 7.74075 9.25849C6.13787 7.65555 5.72711 6.03387 6.16262 5.59882C6.53962 5.22153 6.99726 4.56295 7.68673 5.42067C8.37657 6.2784 8.03784 6.51842 7.64809 6.90772C7.37726 7.17962 7.94481 7.86745 8.53825 8.46115Z" fill="#007FFF" stroke="#007FFF" stroke-width="0.5"/>
</g>
<defs>
<clipPath id="clip0">
<rect width="17" height="16" fill="white"/>
</clipPath>
</defs>
</svg>
