<?xml version="1.0" encoding="UTF-8"?>
<svg width="22px" height="24px" viewBox="0 0 22 24" version="1.1" xmlns="http://www.w3.org/2000/svg" xmlns:xlink="http://www.w3.org/1999/xlink">
    <!-- Generator: sketchtool 61.2 (101010) - https://sketch.com -->
    <title>9014148D-9468-4CAA-9CE9-31F1591F2D9C</title>
    <desc>Created with sketchtool.</desc>
    <defs>
        <polygon id="path-1" points="0 0 22 0 22 24 0 24"></polygon>
    </defs>
    <g id="Page-1" stroke="none" stroke-width="1" fill="none" fill-rule="evenodd">
        <g id="Destinations---All" transform="translate(-213.000000, -597.000000)">
            <g id="Group-3-4" transform="translate(213.000000, 597.000000)">
                <mask id="mask-2" fill="white">
                    <use xlink:href="#path-1"></use>
                </mask>
                <g id="Clip-2"></g>
                <path d="M14.4529846,6.10640608 L15.0334595,4.58631922 C18.3648809,6.07166124 20.6783679,9.32899023 20.6783679,13.1153094 L19.0378953,13.1153094 C19.0219112,10.0238871 17.1534549,7.3485342 14.4529846,6.10640608 L14.4529846,6.10640608 Z M16.5393293,13.1153094 C16.5225039,11.0662324 15.3279033,9.29424539 13.5696532,8.39956569 L13.9743031,7.3485342 C16.1607587,8.40738328 17.6666284,10.5876221 17.6750411,13.1153094 L16.5393293,13.1153094 Z M15.4709189,3.37806732 C15.4709189,3.37806732 16.5317579,0.868621064 16.4720278,0.815635179 C16.4131391,0.764386536 14.0416045,2.31053203 14.0416045,2.31053203 C14.0416045,2.31053203 11.1215632,0 11.0121984,0 C10.8531987,0 8.37902948,2.10988056 8.37902948,2.10988056 C8.37902948,2.10988056 5.73828917,0.13897937 5.67855914,0.208469055 C5.60284502,0.286644951 6.52823984,3.37806732 6.52823984,3.37806732 C4.60173607,4.23018458 2.97051738,5.55830619 1.8255516,7.23561346 C0.673014416,8.9111835 0,10.9359392 0,13.1422367 C0,19.135722 4.93067187,24 11.0037857,24 C17.2796451,24 22,19.135722 22,13.1422367 C22,8.72095548 19.3155137,5.07274701 15.4709189,3.37806732 L15.4709189,3.37806732 Z" id="Fill-1" fill="#1976D2" mask="url(#mask-2)"></path>
            </g>
        </g>
    </g>
</svg>