<?xml version="1.0" encoding="UTF-8"?>
<svg width="20px" height="20px" viewBox="0 0 20 20" version="1.1" xmlns="http://www.w3.org/2000/svg" xmlns:xlink="http://www.w3.org/1999/xlink">
    <!-- Generator: sketchtool 61.2 (101010) - https://sketch.com -->
    <title>4892BFF8-D917-47C7-ACEC-914413BD705F</title>
    <desc>Created with sketchtool.</desc>
    <defs>
        <path d="M17,18 C16.449,18 16,17.551 16,17 C16,16.449 16.449,16 17,16 C17.551,16 18,16.449 18,17 C18,17.551 17.551,18 17,18 M7.245,11.341 C5.671,8.707 8.672,5.65 11.341,7.245 C12.297,7.817 12.813,8.84 12.813,9.812 C12.813,12.782 8.827,13.987 7.245,11.341 M3,18 C2.449,18 2,17.551 2,17 C2,16.449 2.449,16 3,16 C3.551,16 4,16.449 4,17 C4,17.551 3.551,18 3,18 M3,4 C2.449,4 2,3.551 2,3 C2,2.449 2.449,2 3,2 C3.551,2 4,2.449 4,3 C4,3.551 3.551,4 3,4 M17,2 C17.551,2 18,2.449 18,3 C18,3.551 17.551,4 17,4 C16.449,4 16,3.551 16,3 C16,2.449 16.449,2 17,2 M17,14 C16.538,14 16.105,14.113 15.714,14.3 L13.981,12.567 C14.971,11.071 15.152,9.076 14.113,7.301 L15.714,5.7 C16.105,5.887 16.538,6 17,6 C18.657,6 20,4.657 20,3 C20,1.343 18.657,0 17,0 C15.343,0 14,1.343 14,3 C14,3.462 14.113,3.895 14.3,4.286 L12.779,5.807 C11.01,4.495 8.753,4.522 7.058,5.644 L5.7,4.286 C5.887,3.895 6,3.462 6,3 C6,1.343 4.657,0 3,0 C1.343,0 0,1.343 0,3 C0,4.657 1.343,6 3,6 C3.462,6 3.895,5.887 4.286,5.7 L5.644,7.058 C4.522,8.752 4.494,11.01 5.807,12.779 L4.286,14.3 C3.895,14.113 3.462,14 3,14 C1.343,14 0,15.343 0,17 C0,18.657 1.343,20 3,20 C4.657,20 6,18.657 6,17 C6,16.538 5.887,16.105 5.7,15.714 L7.301,14.113 C9.069,15.148 11.065,14.975 12.567,13.981 L14.3,15.714 C14.113,16.105 14,16.538 14,17 C14,18.657 15.343,20 17,20 C18.657,20 20,18.657 20,17 C20,15.343 18.657,14 17,14" id="path-1"></path>
    </defs>
    <g id="Asset-Artboard-Page" stroke="none" stroke-width="1" fill="none" fill-rule="evenodd">
        <g id="Icon-Icon/20px/connection_pattern-[#1105]">
            <mask id="mask-2" fill="white">
                <use xlink:href="#path-1"></use>
            </mask>
            <use id="connection_pattern-[#1105]" fill-opacity="0" fill="#FFFFFF" xlink:href="#path-1"></use>
            <g id="⚙️Atoms/Colour/White-⚙️Atoms/Colour/Grey-Darker/1---100%" mask="url(#mask-2)" fill="#1665D8">
                <g transform="translate(-1.000000, -1.000000)" id="Colour">
                    <rect x="0" y="0" width="22" height="22"></rect>
                </g>
            </g>
        </g>
    </g>
</svg>