<?xml version="1.0" encoding="UTF-8"?>
<svg width="20px" height="20px" viewBox="0 0 20 20" version="1.1" xmlns="http://www.w3.org/2000/svg" xmlns:xlink="http://www.w3.org/1999/xlink">
    <!-- Generator: sketchtool 61.2 (101010) - https://sketch.com -->
    <title>71133BAB-0B30-491B-9D2A-074642A54403</title>
    <desc>Created with sketchtool.</desc>
    <defs>
        <path d="M18,14.6 L2.804,11.561 C2.336,11.467 2,11.057 2,10.58 L2,9.42 C2,8.943 2.336,8.533 2.804,8.439 L18,5.4 L18,14.6 Z M8,15.362 C8,15.995 7.419,16.469 6.798,16.341 L4.798,15.93 C4.334,15.834 4,15.425 4,14.95 L4,13.8 L8,14.6 L8,15.362 Z M18,2 L18,3.4 L1.608,6.678 C0.673,6.865 0,7.686 0,8.64 L0,11.36 C0,12.314 0.673,13.135 1.608,13.322 L2,13.4 L2,15.724 C2,16.673 2.667,17.491 3.597,17.683 L7.597,18.506 C8.838,18.761 10,17.813 10,16.547 L10,15 L18,16.6 L18,18 C18,18.552 18.448,19 19,19 C19.552,19 20,18.552 20,18 L20,2 C20,1.448 19.552,1 19,1 C18.448,1 18,1.448 18,2 L18,2 Z" id="path-1"></path>
    </defs>
    <g id="Asset-Artboard-Page" stroke="none" stroke-width="1" fill="none" fill-rule="evenodd">
        <g id="Icon-Icon/20px/megaphone-[#775]">
            <mask id="mask-2" fill="white">
                <use xlink:href="#path-1"></use>
            </mask>
            <use id="megaphone-[#775]" fill-opacity="0" fill="#FFFFFF" xlink:href="#path-1"></use>
            <g id="⚙️Atoms/Colour/White-⚙️Atoms/Colour/Grey-Darker/1---100%" mask="url(#mask-2)" fill="#9EA0A5">
                <g transform="translate(-1.000000, -1.000000)" id="Colour">
                    <rect x="0" y="0" width="22" height="22"></rect>
                </g>
            </g>
        </g>
    </g>
</svg>