<?xml version="1.0" encoding="UTF-8"?>
<svg width="20px" height="20px" viewBox="0 0 20 20" version="1.1" xmlns="http://www.w3.org/2000/svg" xmlns:xlink="http://www.w3.org/1999/xlink">
    <!-- Generator: sketchtool 61.2 (101010) - https://sketch.com -->
    <title>BBB09C5F-4D7C-4CC3-891C-DB38A8E7FCD6</title>
    <desc>Created with sketchtool.</desc>
    <defs>
        <path d="M20.0001371,4 C20.0001371,4.552 19.5521371,5 19.0001371,5 L17.0001371,5 L17.0001371,7 C17.0001371,7.552 16.5521371,8 16.0001371,8 C15.4481371,8 15.0001371,7.552 15.0001371,7 L15.0001371,5 L13.0001371,5 C12.4481371,5 12.0001371,4.552 12.0001371,4 C12.0001371,3.448 12.4481371,3 13.0001371,3 L15.0001371,3 L15.0001371,1 C15.0001371,0.448 15.4481371,0 16.0001371,0 C16.5521371,0 17.0001371,0.448 17.0001371,1 L17.0001371,3 L19.0001371,3 C19.5521371,3 20.0001371,3.448 20.0001371,4 M11.7401371,18 L3.6121371,18 C2.8171371,18 2.3141371,17.099 2.7721371,16.449 C3.8511371,14.92 5.6251371,13.916 7.6331371,13.902 C7.6471371,13.902 7.6611371,13.906 7.6751371,13.906 C7.6901371,13.906 7.7031371,13.902 7.7181371,13.902 C9.7271371,13.916 11.5021371,14.919 12.5801371,16.449 C13.0381371,17.099 12.5361371,18 11.7401371,18 M7.6751371,7.906 C8.7781371,7.906 9.6751371,8.803 9.6751371,9.906 C9.6751371,10.995 8.8001371,11.879 7.7181371,11.902 C7.7031371,11.902 7.6901371,11.9 7.6751371,11.9 C7.6611371,11.9 7.6471371,11.902 7.6331371,11.902 C6.5501371,11.879 5.6751371,10.995 5.6751371,9.906 C5.6751371,8.803 6.5731371,7.906 7.6751371,7.906 M10.7011371,12.495 C11.5311371,11.527 11.9311371,10.18 11.5001371,8.724 C11.1031371,7.38 9.9731371,6.319 8.6061371,6.011 C5.9921371,5.422 3.6751371,7.393 3.6751371,9.906 C3.6751371,10.899 4.0501371,11.796 4.6491371,12.495 C2.5201371,13.365 0.848137101,15.181 0.101137101,17.4 C-0.328862899,18.68 0.669137101,20 2.0191371,20 L13.3311371,20 C14.6811371,20 15.6801371,18.68 15.2491371,17.4 C14.5021371,15.181 12.8311371,13.365 10.7011371,12.495" id="path-1"></path>
    </defs>
    <g id="Asset-Artboard-Page" stroke="none" stroke-width="1" fill="none" fill-rule="evenodd">
        <g id="Icon-Icon/20px/profile_plus_round-[#1324]">
            <mask id="mask-2" fill="white">
                <use xlink:href="#path-1"></use>
            </mask>
            <use id="profile_plus_round-[#1324]" fill-opacity="0" fill="#FFFFFF" xlink:href="#path-1"></use>
            <g id="⚙️Atoms/Colour/White-⚙️Atoms/Colour/Grey-Darker/1---100%" mask="url(#mask-2)" fill="#9EA0A5">
                <g transform="translate(-1.000000, -1.000000)" id="Colour">
                    <rect x="0" y="0" width="22" height="22"></rect>
                </g>
            </g>
        </g>
    </g>
</svg>