<?xml version="1.0" encoding="UTF-8"?>
<svg width="18px" height="18px" viewBox="0 0 18 18" version="1.1" xmlns="http://www.w3.org/2000/svg" xmlns:xlink="http://www.w3.org/1999/xlink">
    <!-- Generator: sketchtool 61.2 (101010) - https://sketch.com -->
    <title>B7D21D2C-D339-4F2A-8430-376B301F3BD0</title>
    <desc>Created with sketchtool.</desc>
    <g id="Page-1" stroke="none" stroke-width="1" fill="none" fill-rule="evenodd">
        <g id="Destinations---All" transform="translate(-218.000000, -324.000000)" fill="#1A69DD" fill-rule="nonzero">
            <g id="rss-symbol" transform="translate(218.000000, 324.000000)">
                <path d="M1.71141429,6.42857143e-05 C3.20644286,6.42857143e-05 4.64573571,0.1935 6.02929286,0.580371429 C7.41285,0.967242857 8.70788571,1.51476429 9.91436786,2.22293571 C11.1209143,2.93110714 12.2192357,3.78025714 13.2094607,4.77038571 C14.1995571,5.76051429 15.0487071,6.85883571 15.7569107,8.06535 C16.4649857,9.27196071 17.0125071,10.5669643 17.399475,11.9505536 C17.7863786,13.3340786 17.9798143,14.773275 17.9798143,16.2684321 C17.9798143,16.7405464 17.8126393,17.1436821 17.478225,17.4781929 C17.1438107,17.8127036 16.7405786,17.97975 16.2684643,17.97975 C15.7963179,17.97975 15.3930857,17.8126393 15.058575,17.4781929 C14.724225,17.1437786 14.5570179,16.7405464 14.5570179,16.2684321 C14.5570179,15.08805 14.4028929,13.95045 14.0947071,12.8553107 C13.7865214,11.7603964 13.3536536,10.7373857 12.7962964,9.7866 C12.2389393,8.83578214 11.5702071,7.97023929 10.7898107,7.18993929 C10.0094786,6.40963929 9.144,5.74081071 8.19318214,5.18345357 C7.24239643,4.62609643 6.21948214,4.193325 5.12443929,3.88513929 C4.02939643,3.57695357 2.89173214,3.42286071 1.71144643,3.42286071 C1.23933214,3.42286071 0.836067857,3.25565357 0.501653571,2.92123929 C0.167239286,2.586825 3.21428571e-05,2.18356071 3.21428571e-05,1.71144643 C3.21428571e-05,1.23933214 0.167239286,0.836067857 0.501653571,0.501653571 C0.836035714,0.167271429 1.2393,6.42857143e-05 1.71141429,6.42857143e-05 Z M1.71141429,6.47196429 C3.06218571,6.47196429 4.33099286,6.73097143 5.51783571,7.24898571 C6.70467857,7.767 7.74070714,8.46861429 8.62592143,9.35382857 C9.51116786,10.239075 10.2127821,11.2750393 10.7307643,12.4618179 C11.2488107,13.6487893 11.5077857,14.9174679 11.5077857,16.2683679 C11.5077857,16.7404821 11.3406107,17.1436179 11.0062286,17.4781286 C10.6718143,17.8125429 10.2685821,17.9796857 9.79633929,17.9796857 C9.324225,17.9796857 8.92099286,17.812575 8.58657857,17.4781286 C8.25216429,17.1437143 8.08495714,16.7404821 8.08495714,16.2683679 C8.08495714,15.3896464 7.91775,14.5634786 7.58333571,13.7897357 C7.24892143,13.0159929 6.7932,12.3406071 6.21617143,11.7636107 C5.63914286,11.18655 4.96375714,10.7308286 4.19001429,10.3964143 C3.41627143,10.0620643 2.59007143,9.89485714 1.71141429,9.89485714 C1.2393,9.89485714 0.836035714,9.72768214 0.501621429,9.39326786 C0.167207143,9.05882143 0,8.65555714 0,8.18344286 C0,7.71132857 0.167207143,7.30806429 0.501621429,6.97365 C0.836035714,6.63917143 1.2393,6.47196429 1.71141429,6.47196429 Z M4.85884286,15.461775 C4.85884286,15.8027786 4.79655,16.1174893 4.67196429,16.4060357 C4.54737857,16.6946464 4.37689286,16.947 4.16050714,17.1634179 C3.94412143,17.3797071 3.68839286,17.5502571 3.39332143,17.674875 C3.09825,17.7994286 2.78678571,17.8616571 2.45892857,17.8616571 C2.11795714,17.8616571 1.80321429,17.7993643 1.5147,17.674875 C1.22618571,17.5503214 0.973735714,17.379675 0.75735,17.1634179 C0.540964286,16.9470321 0.370478571,16.6945821 0.245892857,16.4060357 C0.121307143,16.1174893 0.0590142857,15.8027786 0.0590142857,15.461775 C0.0590142857,15.1340143 0.121307143,14.8224857 0.245892857,14.5275107 C0.370478571,14.2323107 0.540964286,13.9766143 0.75735,13.7602929 C0.973735714,13.5439071 1.22618571,13.3734536 1.5147,13.2488357 C1.80321429,13.1242821 2.11795714,13.0619571 2.45892857,13.0619571 C2.78678571,13.0619571 3.09825,13.1242821 3.39332143,13.2488357 C3.68839286,13.3734536 3.94412143,13.5439071 4.16050714,13.7602929 C4.37689286,13.9766143 4.54737857,14.2324071 4.67196429,14.5275107 C4.79655,14.8225179 4.85884286,15.13395 4.85884286,15.461775 Z" id="Shape"></path>
            </g>
        </g>
    </g>
</svg>