<?xml version="1.0" encoding="UTF-8"?>
<svg width="20px" height="20px" viewBox="0 0 20 20" version="1.1" xmlns="http://www.w3.org/2000/svg" xmlns:xlink="http://www.w3.org/1999/xlink">
    <!-- Generator: sketchtool 61.2 (101010) - https://sketch.com -->
    <title>A1B55653-3EA7-4F7E-A5FC-FC76AFC409C2</title>
    <desc>Created with sketchtool.</desc>
    <defs>
        <path d="M15.0343079,10.404 C14.0383079,11.416 13.5833079,12.872 13.8193079,14.301 L14.2563079,16.957 L11.9663079,15.703 C11.3623079,15.372 10.6823079,15.197 10.0003079,15.197 C9.31730786,15.197 8.63730786,15.372 8.03330786,15.703 L5.74330786,16.957 L6.18130786,14.301 C6.41630786,12.872 5.96130786,11.416 4.96530786,10.404 L3.11330786,8.523 L5.67330786,8.135 C7.05030786,7.927 8.23930786,7.027 8.85530786,5.727 L10.0003079,3.31 L11.1453079,5.727 C11.7603079,7.027 12.9503079,7.927 14.3263079,8.135 L16.8873079,8.523 L15.0343079,10.404 Z M19.4513079,9.433 C20.5253079,8.342 19.9333079,6.441 18.4483079,6.216 L14.6743079,5.645 C14.0843079,5.556 13.5743079,5.17 13.3113079,4.613 L11.6233079,1.051 C11.2913079,0.35 10.6453079,0 10.0003079,0 C9.35430786,0 8.70830786,0.35 8.37630786,1.051 L6.68930786,4.613 C6.42530786,5.17 5.91530786,5.556 5.32630786,5.645 L1.55230786,6.216 C0.067307856,6.441 -0.525692144,8.342 0.548307856,9.433 L3.27930786,12.206 C3.70630786,12.639 3.90130786,13.263 3.80030786,13.875 L3.15530786,17.791 C2.95430786,19.01 3.88430786,20 4.93930786,20 C5.21730786,20 5.50530786,19.931 5.78230786,19.779 L9.15730786,17.93 C9.42130786,17.786 9.71030786,17.713 10.0003079,17.713 C10.2893079,17.713 10.5783079,17.786 10.8423079,17.93 L14.2183079,19.779 C14.4953079,19.931 14.7823079,20 15.0603079,20 C16.1153079,20 17.0453079,19.01 16.8443079,17.791 L16.2003079,13.875 C16.0993079,13.263 16.2933079,12.639 16.7203079,12.206 L19.4513079,9.433 Z" id="path-1"></path>
    </defs>
    <g id="Asset-Artboard-Page" stroke="none" stroke-width="1" fill="none" fill-rule="evenodd">
        <g id="Icon-Icon/20px/star_favorite-[#1498]">
            <mask id="mask-2" fill="white">
                <use xlink:href="#path-1"></use>
            </mask>
            <use id="star_favorite-[#1498]" fill-opacity="0" fill="#FFFFFF" xlink:href="#path-1"></use>
            <g id="⚙️Atoms/Colour/White-⚙️Atoms/Colour/Grey-Darker/1---100%" mask="url(#mask-2)" fill="#9EA0A5">
                <g transform="translate(-1.000000, -1.000000)" id="Colour">
                    <rect x="0" y="0" width="22" height="22"></rect>
                </g>
            </g>
        </g>
    </g>
</svg>