<?xml version="1.0" encoding="utf-8"?>
<!-- Generator: Adobe Illustrator 23.0.4, SVG Export Plug-In . SVG Version: 6.00 Build 0)  -->
<svg version="1.1" id="Layer_1" xmlns="http://www.w3.org/2000/svg" xmlns:xlink="http://www.w3.org/1999/xlink" x="0px" y="0px"
	 viewBox="0 0 200 100" style="enable-background:new 0 0 200 100;" xml:space="preserve">
<style type="text/css">
	.st0{fill:none;}
	.st1{opacity:0.15;fill:#F79D00;enable-background:new    ;}
	.st2{opacity:0.6;clip-path:url(#SVGID_2_);fill:#F79D00;enable-background:new    ;}
	.st3{fill:#F79D00;}
</style>
<g>
	<path id="Clip_2-3_1_" class="st0" d="M115.3,16.6h46.7v63.5h-46.7V16.6z"/>
	<path id="Fill_18_1_" class="st1" d="M193.4,81.2c0,1.2-41.8,2.2-93.4,2.2s-93.4-1-93.4-2.2C6.6,80,48.4,79,100,79
		S193.4,80,193.4,81.2"/>
	<path id="Clip_21-2_1_" class="st0" d="M162.1,16.6h-46.7v63.5h46.7V16.6z"/>
	<g>
		<defs>
			<rect id="SVGID_1_" x="115.3" y="16.6" width="46.7" height="63.5"/>
		</defs>
		<clipPath id="SVGID_2_">
			<use xlink:href="#SVGID_1_"  style="overflow:visible;"/>
		</clipPath>
		<path id="Fill_20_1_" class="st2" d="M161.3,80.1h-45.3c-0.4,0-0.7-0.3-0.7-0.7V17.3c0-0.4,0.3-0.7,0.7-0.7H152
			c0.1,0,0.3,0,0.4,0.1c0,0,0.1,0.1,0.1,0.1l9.3,9.3c0.1,0.1,0.2,0.3,0.2,0.5v52.7c0,0,0,0.1,0,0.1c0,0,0,0.1,0,0.1
			c0,0.1-0.1,0.2-0.1,0.2c0,0,0,0,0,0c0,0,0,0,0,0c-0.1,0.1-0.1,0.1-0.2,0.1c0,0,0,0,0,0c0,0,0,0,0,0
			C161.5,80.1,161.4,80.1,161.3,80.1z M116.8,18v60.6h43.8v-51H152c-0.4,0-0.7-0.3-0.7-0.7V18H116.8z M152.8,19.1v7.1h7.1
			L152.8,19.1z"/>
	</g>
	<g>
		<path class="st3" d="M125.7,47.8c-1.1,0.1-2,1-2,2.1v6.9c-0.1,1.1,0.8,2,2,2.1c0.1,0,0.1,0,0.2,0h4.3V47.8h-4.3
			C125.8,47.8,125.8,47.8,125.7,47.8z M128.7,57.3h-2.8c0,0,0,0-0.1,0c-0.3,0-0.6-0.2-0.6-0.5l0,0l0-6.9c0-0.3,0.2-0.5,0.5-0.5
			l0.1,0h2.8V57.3z"/>
		<path class="st3" d="M142.8,43.4c-0.4-0.9-1.4-1.5-2.5-1.3c-0.3,0.1-0.6,0.2-0.8,0.3L133,47c-0.6,0.4-1,1.1-1,1.9l0,8.9
			c0,0.7,0.4,1.4,1,1.8l6.5,4.6c0.4,0.3,0.8,0.4,1.3,0.4c0.3,0,0.7-0.1,1-0.2c0.7-0.4,1.2-1.1,1.2-1.9V44.3
			C143,44,142.9,43.7,142.8,43.4L142.8,43.4z M141.4,62.5c0,0.2-0.1,0.4-0.3,0.5c-0.2,0.1-0.5,0.1-0.7,0l-6.5-4.6
			c-0.2-0.1-0.3-0.3-0.3-0.6l0-8.9c0-0.2,0.1-0.4,0.3-0.6l6.5-4.6c0.1-0.1,0.2-0.1,0.2-0.1c0,0,0.1,0,0.1,0c0.3,0,0.5,0.2,0.6,0.4
			c0,0.1,0.1,0.2,0.1,0.3V62.5z"/>
		<path class="st3" d="M153.7,53.4c0-0.4-0.3-0.7-0.7-0.7h-5c0,0,0,0,0,0c-0.4,0-0.7,0.3-0.7,0.7c0,0.4,0.3,0.7,0.7,0.7h5
			C153.3,54.1,153.7,53.8,153.7,53.4L153.7,53.4z"/>
		<path class="st3" d="M146.3,44.9l4.3-2.5c0,0,0,0,0,0c0.3-0.2,0.5-0.6,0.3-1v0c0,0,0,0,0,0c-0.2-0.3-0.6-0.5-1-0.3l-4.3,2.5
			c0,0,0,0,0,0c-0.3,0.2-0.4,0.6-0.2,1C145.5,45,146,45.1,146.3,44.9z"/>
		<path class="st3" d="M150.6,63.8l-4.3-2.5c-0.3-0.2-0.8-0.1-1,0.3c0,0,0,0,0,0v0c-0.2,0.3-0.1,0.8,0.3,1c0,0,0,0,0,0l4.3,2.5
			c0.3,0.2,0.8,0.1,1-0.3C151,64.4,150.9,64,150.6,63.8z"/>
	</g>
	<g>
		<path class="st3" d="M105.8,74.6c0-0.6-0.5-1.2-1.2-1.2c0,0,0,0,0,0l-6.2,0V38.6c0-1.6-0.6-3.1-1.8-4.3c-1.1-1.1-2.7-1.8-4.3-1.8
			h-55c-1.6,0-3.1,0.6-4.3,1.8c-1.1,1.1-1.8,2.7-1.8,4.3v34.9l-6.2,0c0,0,0,0,0,0c-0.6,0-1.2,0.5-1.2,1.2c0,0.1,0,0.1,0,0.2
			c0,1,0.3,2.7,1.6,4.1c1.2,1.2,3.1,1.9,5.5,1.9l67.8,0c2.4,0,4.2-0.6,5.5-1.9c1.3-1.3,1.6-3.1,1.6-4.1
			C105.8,74.7,105.8,74.6,105.8,74.6z M32.6,38.6c0-1.3,0.5-2.5,1.4-3.4c0.9-0.9,2.1-1.4,3.4-1.4h55c1.3,0,2.5,0.5,3.4,1.4
			c0.9,0.9,1.4,2.1,1.4,3.4v34.9l-2.8,0V36.1h0h-59h0v37.3l-2.8,0V38.6z M93.1,37.4v36l-18.8,0c-0.6,0-1,0.4-1.1,0.9
			c-0.1,0.6-0.6,1-1.2,1H57.9c-0.6,0-1.1-0.4-1.2-1c-0.1-0.5-0.6-0.9-1.1-0.9l-18.8,0V37.4H93.1z M103.3,77.9c-1,1-2.5,1.5-4.6,1.5
			l-67.8,0c-2.1,0-3.6-0.5-4.6-1.5c-1-1.1-1.2-2.5-1.2-3.3l30.2,0c0.3,1.1,1.3,1.9,2.5,1.9h14.1c1.2,0,2.2-0.8,2.5-1.9l30.2-0.1
			C104.6,75.5,104.4,76.9,103.3,77.9z"/>
		<rect x="40.3" y="58.1" class="st3" width="0.4" height="2.3"/>
		<rect x="43.3" y="55.5" class="st3" width="0.4" height="4.9"/>
		<rect x="70.8" y="53.9" class="st3" width="0.4" height="6.5"/>
		<rect x="58.6" y="47" class="st3" width="0.4" height="13.3"/>
		<rect x="55.5" y="45" class="st3" width="0.4" height="15.4"/>
		<rect x="52.5" y="45" class="st3" width="0.4" height="15.4"/>
		<rect x="49.4" y="47.4" class="st3" width="0.4" height="13"/>
		<rect x="46.4" y="51.4" class="st3" width="0.4" height="8.9"/>
		<rect x="67.7" y="57.9" class="st3" width="0.4" height="2.4"/>
		<rect x="64.7" y="55.5" class="st3" width="0.4" height="4.9"/>
		<rect x="61.6" y="51.5" class="st3" width="0.4" height="8.8"/>
		<rect x="73.8" y="55.7" class="st3" width="0.4" height="4.7"/>
		<rect x="79.9" y="56.7" class="st3" width="0.4" height="3.7"/>
		<rect x="76.9" y="57.9" class="st3" width="0.4" height="2.4"/>
		<rect x="89.1" y="46" class="st3" width="0.4" height="14.4"/>
		<rect x="86" y="48.9" class="st3" width="0.4" height="11.5"/>
		<rect x="83" y="53.8" class="st3" width="0.4" height="6.6"/>
		<rect x="40.3" y="61.5" class="st3" width="0.4" height="1.1"/>
		<rect x="43.3" y="61.5" class="st3" width="0.4" height="2.4"/>
		<rect x="70.8" y="61.5" class="st3" width="0.4" height="6"/>
		<rect x="58.6" y="61.5" class="st3" width="0.4" height="6.6"/>
		<rect x="55.5" y="61.5" class="st3" width="0.4" height="7.6"/>
		<rect x="52.5" y="61.5" class="st3" width="0.4" height="7.5"/>
		<rect x="49.4" y="61.5" class="st3" width="0.4" height="6.4"/>
		<rect x="46.4" y="61.5" class="st3" width="0.4" height="4.4"/>
		<rect x="67.7" y="61.5" class="st3" width="0.4" height="1.2"/>
		<rect x="64.7" y="61.5" class="st3" width="0.4" height="2.4"/>
		<rect x="61.6" y="61.5" class="st3" width="0.4" height="4.3"/>
		<rect x="73.8" y="61.5" class="st3" width="0.4" height="4.1"/>
		<rect x="79.9" y="61.5" class="st3" width="0.4" height="1.8"/>
		<rect x="76.9" y="61.5" class="st3" width="0.4" height="1.9"/>
		<rect x="89.1" y="61.5" class="st3" width="0.4" height="7.1"/>
		<rect x="86" y="61.5" class="st3" width="0.4" height="5.7"/>
		<rect x="83" y="61.5" class="st3" width="0.4" height="3.3"/>
	</g>
	<path id="Fill_184_1_" class="st3" d="M174.8,80.1h-3.3c-0.3,0-0.5-0.2-0.6-0.4c0-0.1-0.1-0.2-0.1-0.3V42.4c0,0,0,0,0-0.1l1.7-5.2
		c0.1-0.3,0.3-0.4,0.6-0.4c0.1,0,0.1,0,0.2,0c0.2,0.1,0.3,0.2,0.4,0.3v0c0,0,0,0.1,0.1,0.1l1.6,5.1c0,0.1,0,0.1,0,0.2v37
		C175.4,79.8,175.1,80.1,174.8,80.1z M173.1,39.3l-1,3.3v36.3h2.1V42.5L173.1,39.3z"/>
</g>
</svg>
