<svg id="Layer_1" data-name="Layer 1" xmlns="http://www.w3.org/2000/svg" viewBox="0 0 532 684"><defs><style>.cls-1{fill:#bcbcbc;}.cls-2{fill:#fff;}</style></defs><path class="cls-1" d="M521,172.36V419.47a73.2,73.2,0,0,1-47.86,68.62L258.45,567.18c-96.07,35.51-103.62,95.14-103.62,95.14L21,571.55S45,503.83,154.81,465l77.55-28.4,107.05-39.38a73.22,73.22,0,0,0,47.86-68.69V116.65l25.13-9.25,10.15-3.73A73.22,73.22,0,0,1,521,172.36Z"/><path class="cls-2" d="M485.34,109.38h-.19a72.41,72.41,0,0,0-62.58-5.72l-10.16,3.73-25.12,9.25-184.59,68a73.09,73.09,0,0,0-47.87,68.62v409L21.06,571.53V162.45A73,73,0,0,1,68.93,93.83l219.86-81a72.67,72.67,0,0,1,67.85,9.12Z"/></svg>